<?xml version="1.0" standalone="no"?>
<!DOCTYPE svg PUBLIC "-//W3C//DTD SVG 20010904//EN"
 "http://www.w3.org/TR/2001/REC-SVG-20010904/DTD/svg10.dtd">
<svg version="1.0" xmlns="http://www.w3.org/2000/svg"
 width="512.000000pt" height="512.000000pt" viewBox="0 0 512.000000 512.000000"
 preserveAspectRatio="xMidYMid meet">
<metadata>
Created by potrace 1.16, written by Peter Selinger 2001-2019
</metadata>
<g transform="translate(0.000000,512.000000) scale(0.100000,-0.100000)"
fill="#000000" stroke="none">
<path d="M1426 5105 c-57 -20 -87 -45 -116 -96 -23 -40 -25 -57 -28 -180 l-4
-137 -191 -5 c-210 -5 -263 -15 -412 -72 -179 -69 -379 -228 -485 -384 -56
-84 -124 -228 -149 -318 -41 -151 -42 -198 -39 -1628 5 -1499 1 -1398 63
-1576 123 -354 430 -614 815 -691 99 -20 3265 -19 3365 1 381 75 692 342 814
700 58 169 54 77 58 1561 4 1422 3 1484 -38 1632 -25 90 -93 235 -149 319 -58
86 -198 223 -290 284 -92 60 -216 115 -330 145 -69 18 -121 23 -277 27 l-193
5 0 117 c0 64 -5 132 -10 152 -31 112 -147 179 -259 149 -42 -11 -112 -65
-134 -104 -7 -12 -14 -81 -17 -166 l-5 -145 -855 0 -855 0 -5 145 c-3 85 -10
154 -17 166 -21 37 -91 92 -130 103 -50 14 -79 13 -127 -4z m2752 -851 c239
-48 437 -235 497 -471 10 -40 16 -114 18 -215 l2 -153 -2135 0 -2135 0 2 153
c1 98 8 176 18 215 43 173 175 337 335 415 153 74 48 70 1773 71 1368 1 1557
-1 1625 -15z m517 -2274 c0 -942 -1 -1009 -18 -1069 -66 -232 -236 -402 -467
-468 -62 -17 -142 -18 -1650 -18 -1508 0 -1588 1 -1650 18 -175 50 -329 171
-407 323 -82 157 -76 77 -80 1198 -2 549 -2 1005 1 1012 5 12 346 14 2138 12
l2133 -3 0 -1005z M1417 2230 c-191 -48 -293 -266 -209 -445 55 -115 155 -178
282 -179 333 -3 444 447 146 594 -70 35 -153 46 -219 30z M2487 2230 c-56 -15
-108 -44 -151 -87 -122 -120 -122 -325 0 -447 122 -122 326 -122 448 0 122
122 122 326 0 448 -73 73 -201 110 -297 86z M3536 2224 c-276 -88 -307 -459
-49 -586 59 -29 77 -33 143 -32 89 0 146 22 210 80 134 121 134 347 0 468 -23
21 -62 47 -86 57 -60 27 -157 33 -218 13z"/>
</g>
</svg>
