<?xml version="1.0" standalone="no"?>
<!DOCTYPE svg PUBLIC "-//W3C//DTD SVG 20010904//EN"
 "http://www.w3.org/TR/2001/REC-SVG-20010904/DTD/svg10.dtd">
<svg version="1.0" xmlns="http://www.w3.org/2000/svg"
 width="512.000000pt" height="512.000000pt" viewBox="0 0 512.000000 512.000000"
 preserveAspectRatio="xMidYMid meet">
<metadata>
Created by potrace 1.16, written by Peter Selinger 2001-2019
</metadata>
<g transform="translate(0.000000,512.000000) scale(0.100000,-0.100000)"
fill="#000000" stroke="none">
<path d="M1420 5107 c-48 -16 -113 -83 -128 -133 -6 -23 -12 -95 -12 -161 l0
-121 -197 -5 c-216 -5 -284 -18 -426 -77 -218 -90 -415 -269 -530 -480 -50
-90 -103 -258 -117 -365 -8 -65 -10 -472 -8 -1475 l3 -1385 27 -100 c105 -383
390 -667 775 -773 l98 -27 1655 0 1655 0 100 27 c384 106 667 389 773 775 l27
98 3 1395 c3 1541 5 1494 -60 1679 -125 360 -444 631 -815 696 -52 9 -149 15
-244 15 l-159 0 0 121 c0 147 -12 191 -65 245 -98 98 -262 77 -332 -44 -26
-44 -28 -56 -31 -184 l-4 -138 -848 0 -848 0 -4 138 c-3 128 -5 140 -31 184
-50 85 -162 127 -257 95z m2827 -870 c161 -54 295 -169 373 -317 56 -110 70
-177 70 -357 l0 -153 -2130 0 -2130 0 0 153 c0 180 14 247 70 357 95 181 275
310 474 340 28 4 758 7 1621 6 l1570 -1 82 -28z m441 -2279 l-3 -1033 -26 -67
c-74 -191 -206 -323 -397 -397 l-67 -26 -1635 0 -1635 0 -67 26 c-190 74 -323
207 -397 397 l-26 67 -3 1033 -2 1032 2130 0 2130 0 -2 -1032z M1405 2227
c-66 -22 -99 -43 -142 -90 -52 -56 -68 -87 -83 -159 -28 -140 50 -288 185
-350 76 -35 191 -33 267 5 62 30 115 83 150 149 19 36 23 58 23 138 0 106 -15
147 -81 220 -73 80 -218 120 -319 87z M2485 2231 c-92 -24 -173 -90 -215 -176
-33 -69 -34 -199 -2 -265 35 -71 75 -114 144 -151 58 -31 70 -34 148 -33 72 0
93 4 136 26 75 40 107 70 145 140 31 58 34 70 33 148 0 72 -4 93 -26 136 -39
75 -70 107 -137 143 -65 34 -164 49 -226 32z M3522 2222 c-66 -24 -118 -65
-159 -126 -43 -63 -56 -116 -51 -201 8 -116 71 -211 176 -262 48 -24 69 -28
137 -28 105 1 167 27 234 101 114 125 114 303 0 428 -85 94 -221 129 -337 88z"/>
</g>
</svg>
