<?xml version="1.0" encoding="UTF-8"?>
<!-- Generator: visioncortex VTracer 0.6.4 -->
<svg version="1.1" xmlns="http://www.w3.org/2000/svg" width="512" height="512">
<path d="M0 0 C0.899121 -0.02417 0.899121 -0.02417 1.816406 -0.048828 C8.938922 -0.056553 13.621181 2.97903 18.125 8.3125 C22.125 16.3125 22.125 16.3125 22.125 42.3125 C78.225 42.3125 134.325 42.3125 192.125 42.3125 C192.125 33.7325 192.125 25.1525 192.125 16.3125 C199.643628 1.275244 199.643628 1.275244 208.623779 0.119629 C219.289376 -0.425799 226.828155 0.867233 233.125 10.3125 C235.346512 13.8713 235.391187 16.764677 235.320312 20.828125 C235.316068 21.751869 235.316068 21.751869 235.311737 22.694275 C235.300591 24.650552 235.275498 26.606362 235.25 28.5625 C235.239963 29.893223 235.230838 31.223952 235.222656 32.554688 C235.20067 35.80747 235.16618 39.059906 235.125 42.3125 C235.903997 42.29679 236.682993 42.281079 237.485596 42.264893 C281.983173 41.44874 322.773009 52.428439 347.991699 92.399902 C358.057494 109.387287 363.453097 127.620762 363.392426 147.333878 C363.396172 148.506114 363.400777 149.678347 363.406156 150.850577 C363.418281 154.040451 363.418138 157.230219 363.415767 160.420111 C363.415357 163.872935 363.426424 167.325726 363.435883 170.778534 C363.452437 177.532206 363.45799 184.285844 363.459107 191.039534 C363.460061 196.535404 363.464185 202.031262 363.470509 207.527128 C363.488107 223.142158 363.49735 238.75716 363.495848 254.3722 C363.495728 255.632718 363.495728 255.632718 363.495605 256.918701 C363.495524 257.760084 363.495442 258.601467 363.495358 259.468347 C363.494546 273.090206 363.513668 286.711954 363.541882 300.333782 C363.570688 314.353158 363.584418 328.372481 363.582695 342.391889 C363.582033 350.249553 363.587412 358.107101 363.609051 365.964739 C363.627365 372.657381 363.631527 379.349854 363.618032 386.042511 C363.611553 389.449409 363.611199 392.855984 363.628738 396.26285 C363.78729 429.151927 356.209323 456.836075 333.125 481.3125 C332.705571 481.759321 332.286143 482.206143 331.854004 482.666504 C307.253497 508.254516 275.16999 512.950063 241.569581 512.835399 C237.594029 512.826249 233.618544 512.840366 229.643005 512.851318 C221.878914 512.869004 214.114978 512.865309 206.350881 512.853668 C200.034709 512.844594 193.718581 512.843426 187.402405 512.847763 C186.048381 512.848682 186.048381 512.848682 184.667003 512.84962 C182.832598 512.850899 180.998192 512.852196 179.163787 512.853511 C162.006426 512.864887 144.849151 512.851849 127.691804 512.830309 C113.00478 512.812441 98.317882 512.815546 83.630859 512.833984 C66.53033 512.855443 49.429877 512.863789 32.329336 512.851535 C30.502089 512.850261 28.674842 512.849004 26.847595 512.847763 C25.94881 512.847146 25.050024 512.846529 24.124003 512.845893 C17.823393 512.842455 11.522831 512.848235 5.222229 512.857681 C-2.467543 512.868958 -10.157151 512.865742 -17.846904 512.844558 C-21.762166 512.834124 -25.677156 512.829794 -29.592415 512.843155 C-63.817059 512.950091 -92.254387 506.475935 -117.875 482.3125 C-118.545232 481.683357 -118.545232 481.683357 -119.229004 481.041504 C-143.584115 457.626318 -149.529969 426.59102 -149.38324 394.348452 C-149.371981 390.89444 -149.384121 387.44049 -149.393082 383.986481 C-149.406915 377.246077 -149.399533 370.505863 -149.384406 363.765469 C-149.367428 355.896766 -149.370771 348.028108 -149.3745 340.159392 C-149.38036 326.1107 -149.366279 312.062097 -149.341553 298.013428 C-149.317624 284.415737 -149.310556 270.818167 -149.321045 257.220459 C-149.33248 242.369005 -149.334353 227.517607 -149.319947 212.666154 C-149.318421 211.079648 -149.316901 209.493143 -149.315386 207.906637 C-149.314249 206.736111 -149.314249 206.736111 -149.313089 205.541937 C-149.308368 200.070988 -149.310183 194.600063 -149.314451 189.129114 C-149.319402 182.454494 -149.313288 175.779987 -149.293557 169.105393 C-149.283755 165.706983 -149.278502 162.308745 -149.286449 158.910326 C-149.320117 142.821004 -149.193971 127.391233 -143.125 112.1875 C-142.738765 111.197863 -142.738765 111.197863 -142.344727 110.188232 C-127.902657 74.182748 -96.17917 49.26834 -57.949219 43.130615 C-45.703915 41.498479 -33.196875 42.063998 -20.875 42.3125 C-20.914276 41.103037 -20.914276 41.103037 -20.954346 39.869141 C-21.045679 36.842737 -21.102544 33.816451 -21.149658 30.789062 C-21.174616 29.485468 -21.208596 28.182011 -21.252197 26.878906 C-21.634131 15.16029 -19.551664 7.762468 -9.152344 1.230469 C-6.054789 -0.018117 -3.308824 -0.017563 0 0 Z M-70.875 92.8125 C-71.546521 93.153618 -72.218042 93.494736 -72.909912 93.846191 C-91.952437 104.031465 -102.768543 122.384789 -105.875 143.3125 C-105.875 152.2225 -105.875 161.1325 -105.875 170.3125 C34.705 170.3125 175.285 170.3125 320.125 170.3125 C320.876959 148.108789 320.876959 148.108789 316.125 127.3125 C315.894258 126.711958 315.663516 126.111416 315.425781 125.492676 C306.852182 104.211777 287.5512 90.075729 265.125 86.3125 C260.684766 85.837346 256.225682 85.905399 251.766113 85.931549 C250.460868 85.928084 249.155626 85.923314 247.850389 85.917367 C244.29769 85.904946 240.745236 85.910987 237.192536 85.920326 C233.347885 85.927153 229.503274 85.916617 225.65863 85.908386 C218.140396 85.895085 210.622252 85.89791 203.104015 85.906624 C196.990743 85.913415 190.877496 85.914311 184.764221 85.911053 C183.456336 85.910363 183.456336 85.910363 182.122028 85.90966 C180.350424 85.9087 178.578819 85.907728 176.807214 85.906742 C160.216624 85.898199 143.626084 85.908005 127.035503 85.924143 C112.817263 85.937545 98.599097 85.935217 84.380859 85.921387 C67.847371 85.905312 51.313927 85.899023 34.780432 85.908224 C33.015547 85.909179 31.250663 85.910122 29.485779 85.911053 C28.617548 85.911516 27.749318 85.911978 26.854777 85.912455 C20.752804 85.915039 14.650858 85.910686 8.548889 85.903614 C1.106959 85.895178 -6.334876 85.897524 -13.776796 85.913456 C-17.569718 85.92131 -21.362482 85.92448 -25.155403 85.914509 C-28.634457 85.905502 -32.113209 85.910592 -35.592236 85.926441 C-36.843762 85.929764 -38.095314 85.928153 -39.346823 85.920814 C-50.546097 85.860234 -60.773335 87.657861 -70.875 92.8125 Z M-105.875 214.3125 C-126.619711 327.511104 -126.619711 327.511104 -74.875 460.3125 C-74.097695 460.79332 -73.320391 461.274141 -72.519531 461.769531 C-56.46185 470.672534 -38.645602 469.899009 -20.875082 469.835399 C-17.090399 469.826259 -13.305787 469.840362 -9.521118 469.851318 C-2.127731 469.869014 5.265492 469.865304 12.658885 469.853668 C18.672872 469.844598 24.686814 469.843425 30.700806 469.847763 C31.559931 469.848376 32.419056 469.848989 33.304216 469.84962 C35.050043 469.850899 36.795871 469.852196 38.541699 469.853511 C54.874921 469.86489 71.208053 469.851844 87.54126 469.830309 C101.52625 469.812441 115.511107 469.815546 129.496094 469.833984 C145.774761 469.855438 162.053349 469.863792 178.332027 469.851535 C180.071083 469.850261 181.810139 469.849004 183.549194 469.847763 C184.404626 469.847146 185.260057 469.846529 186.14141 469.845893 C192.141371 469.842453 198.141282 469.848238 204.141235 469.857681 C211.462942 469.868952 218.784477 469.865755 226.106164 469.844558 C229.834844 469.834116 233.563239 469.829808 237.291916 469.843155 C267.234292 469.941309 294.176351 465.93441 311.125 438.3125 C311.84623 437.146543 311.84623 437.146543 312.582031 435.957031 C348.427654 371.304957 320.125 288.236782 320.125 214.3125 C179.545 214.3125 38.965 214.3125 -105.875 214.3125 Z " fill="#000000" transform="translate(148.875,-0.3125)"/>
<path d="M0 0 C10.014348 9.316137 13.114403 21.414586 10.097656 34.601562 C6.355013 44.97816 -2.29023 54.186993 -13.25 56.75 C-26.533381 58.363885 -38.06897 56.157894 -47.25 45.75 C-54.902992 34.747607 -56.836012 22.214161 -51.25 9.75 C-40.180662 -8.81889 -16.829335 -13.594121 0 0 Z " fill="#000000" transform="translate(384.25,295.25)"/>
<path d="M0 0 C8.280811 9.387378 10.72034 21.009835 7.691406 33.050781 C4.049944 43.83967 -5.061658 52.427673 -16.246094 54.988281 C-30.322283 56.673974 -41.876947 53.657948 -50.785156 41.96875 C-57.434941 31.799635 -58.792869 19.425071 -53.574219 8.234375 C-42.002673 -11.33515 -16.851385 -15.898175 0 0 Z " fill="#000000" transform="translate(173.24609375,297.01171875)"/>
<path d="M0 0 C8.529452 9.486839 11.170851 22.386072 7.84375 34.722656 C3.933324 45.329686 -4.351599 53.08723 -15.46875 55.703125 C-28.867731 57.331224 -41.409619 55.090268 -49.9375 43.75 C-56.847402 33.224452 -58.258083 19.339725 -52.726562 7.8125 C-41.755298 -10.586515 -15.900139 -14.85013 0 0 Z " fill="#000000" transform="translate(279.46875,296.296875)"/>
</svg>
