<?xml version="1.0" standalone="no"?>
<!DOCTYPE svg PUBLIC "-//W3C//DTD SVG 20010904//EN"
 "http://www.w3.org/TR/2001/REC-SVG-20010904/DTD/svg10.dtd">
<svg version="1.0" xmlns="http://www.w3.org/2000/svg"
 width="512.000000pt" height="512.000000pt" viewBox="0 0 512.000000 512.000000"
 preserveAspectRatio="xMidYMid meet">
<metadata>
Created by potrace 1.16, written by Peter Selinger 2001-2019
</metadata>
<g transform="translate(0.000000,512.000000) scale(0.100000,-0.100000)"
fill="#000000" stroke="none">
<path d="M1230 4695 c-325 -55 -593 -193 -817 -422 -190 -193 -315 -425 -379
-700 -26 -108 -28 -136 -28 -323 -1 -226 11 -320 66 -505 187 -633 741 -1357
1643 -2145 248 -217 335 -274 515 -334 253 -84 526 -69 777 44 98 45 188 108
345 243 929 801 1514 1558 1697 2198 55 193 65 266 66 489 0 221 -13 312 -72
488 -140 423 -493 772 -923 912 -285 93 -547 89 -832 -13 -276 -99 -535 -306
-683 -546 -21 -33 -41 -61 -45 -61 -4 0 -24 28 -45 61 -118 191 -324 378 -536
483 -237 119 -524 169 -749 131z m292 -429 c308 -60 577 -266 718 -551 67
-135 98 -260 108 -440 7 -131 10 -146 35 -183 83 -126 264 -128 351 -4 29 40
30 49 38 186 10 176 40 303 103 432 132 272 376 472 670 550 105 28 285 26
389 -4 236 -68 435 -206 570 -395 59 -83 129 -230 157 -332 33 -123 38 -383
10 -522 -32 -154 -74 -271 -161 -449 -124 -253 -309 -521 -569 -824 -245 -287
-870 -882 -1046 -996 -92 -60 -180 -86 -305 -91 -177 -8 -299 34 -450 154
-358 286 -875 809 -1151 1163 -210 270 -415 626 -488 848 -59 178 -73 277 -68
467 5 199 21 274 92 422 102 216 258 375 470 481 186 92 356 121 527 88z"/>
</g>
</svg>
