<?xml version="1.0" standalone="no"?>
<!DOCTYPE svg PUBLIC "-//W3C//DTD SVG 20010904//EN"
 "http://www.w3.org/TR/2001/REC-SVG-20010904/DTD/svg10.dtd">
<svg version="1.0" xmlns="http://www.w3.org/2000/svg"
 width="512.000000pt" height="512.000000pt" viewBox="0 0 512.000000 512.000000"
 preserveAspectRatio="xMidYMid meet">
<metadata>
Created by potrace 1.16, written by Peter Selinger 2001-2019
</metadata>
<g transform="translate(0.000000,512.000000) scale(0.100000,-0.100000)"
fill="#000000" stroke="none">
<path d="M1225 4696 c-633 -107 -1116 -593 -1210 -1221 -17 -116 -19 -313 -5
-435 85 -707 658 -1525 1720 -2455 80 -70 177 -150 215 -177 95 -68 234 -134
352 -165 87 -23 117 -26 263 -26 146 0 176 3 263 26 118 31 257 97 352 165
167 119 639 554 877 807 652 692 996 1288 1059 1835 16 139 6 386 -19 505
-130 600 -603 1048 -1207 1142 -341 52 -736 -71 -1028 -322 -80 -68 -198 -206
-252 -294 -21 -33 -41 -61 -45 -61 -4 0 -24 28 -45 61 -54 88 -172 226 -252
294 -176 151 -382 254 -613 306 -112 26 -319 33 -425 15z m378 -450 c179 -53
314 -132 442 -261 200 -199 305 -461 305 -758 0 -142 80 -231 210 -231 130 0
210 89 210 231 0 254 80 489 227 673 196 243 507 394 778 377 399 -25 773
-342 885 -752 31 -112 39 -361 16 -495 -102 -587 -684 -1366 -1621 -2169 -195
-167 -316 -221 -495 -221 -179 0 -300 54 -495 221 -932 797 -1519 1583 -1621
2169 -23 134 -15 383 16 495 102 371 401 655 780 740 96 22 252 13 363 -19z"/>
</g>
</svg>
