<?xml version="1.0" encoding="UTF-8"?>
<!-- Generator: visioncortex VTracer 0.6.4 -->
<svg version="1.1" xmlns="http://www.w3.org/2000/svg" width="512" height="512">
<path d="M0 0 C0.8053417969 0.6392944336 0.8053417969 0.6392944336 1.626953125 1.2915039062 C34 27.158918757 34 27.158918757 34 40 C34.66 40 35.32 40 36 40 C36.66 38.35 37.32 36.7 38 35 C61.172904194 1.6037557204 95.4107408965 -23.9039908447 137 -28 C137.6134326172 -28.0655810547 138.2268652344 -28.1311621094 138.8588867188 -28.1987304688 C172.6571950828 -31.6187485682 208.5796490457 -20.3115995389 235 1 C235.5045068359 1.3991259766 236.0090136719 1.7982519531 236.5288085938 2.2094726562 C258.8911984281 19.9948048689 275.1815394732 42.9310577673 284.375 70 C284.696862793 70.935859375 285.0187255859 71.87171875 285.3503417969 72.8359375 C305.8603865409 136.1941291452 278.9312512272 200.6328583316 243 252 C242.5077392578 252.7047949219 242.0154785156 253.4095898437 241.5083007812 254.1357421875 C233.7839162688 265.1361900598 225.6158426435 275.6860649912 217 286 C216.5125732422 286.5865234375 216.0251464844 287.173046875 215.5229492188 287.77734375 C209.9266321626 294.5043647292 204.1877876881 301.0740158744 198.265625 307.515625 C196.2979970096 309.6600448565 194.3926777146 311.8514279035 192.5 314.0625 C189.4349658782 317.5974096357 186.1727840981 320.8947798226 182.814453125 324.1486816406 C180.3072905898 326.6018105005 177.9879773725 329.1543897139 175.70703125 331.8203125 C171.9627676939 336.1385142654 167.8873508503 340.0055545065 163.6875 343.875 C158.8579285491 348.360041513 154.0577385495 352.8604214762 149.4375 357.5625 C146.168077406 360.880239184 142.7908593908 364.0043863272 139.25 367.03125 C136.9108651454 369.0779929978 134.6388639572 371.1845246915 132.3676757812 373.3059082031 C127.3611096719 377.9814676894 122.2992861279 382.5050467277 116.9450683594 386.7790527344 C114.3421946869 388.8659735535 111.8657145971 391.0267625396 109.44140625 393.3181152344 C80.335349742 420.6646867691 39.586797003 428.8177756024 1.0810546875 417.4326171875 C-15.0751996765 412.1024341238 -28.8737432073 402.8267194799 -41.2951660156 391.3623046875 C-44.1450499293 388.7354649874 -47.0923110964 386.2868586273 -50.125 383.875 C-56.4719864302 378.7900413505 -62.3072494407 373.1640406144 -68.20703125 367.57421875 C-71.1748992774 364.7645198551 -74.1858843774 362.0163176707 -77.25 359.3125 C-81.5263796031 355.5266754134 -85.554297893 351.512675195 -89.5400390625 347.4230957031 C-92.2139713218 344.7003860138 -94.9624551889 342.1451207161 -97.86328125 339.6640625 C-102.2351187773 335.880462248 -106.1461697311 331.746806247 -110.0625 327.5 C-114.4435470142 322.7767496992 -118.8406547273 318.096125961 -123.4365234375 313.5803222656 C-126.0629736388 310.9255733348 -128.4874244435 308.1014524441 -130.9145507812 305.2651367188 C-132.1551189034 303.8192023938 -133.4037405272 302.3804071404 -134.65234375 300.94140625 C-151.3887355107 281.6031974237 -167.2593690448 261.6000579996 -181 240 C-181.3636767578 239.4295898438 -181.7273535156 238.8591796875 -182.1020507812 238.271484375 C-199.9348992709 210.0394714366 -214.4518785974 179.1055011567 -220 146 C-220.130661087 145.26658638 -220.130661087 145.26658638 -220.263961792 144.5183563232 C-221.0801988798 139.5230034395 -221.1287479119 134.6194838109 -221.09765625 129.56640625 C-221.0962413025 128.6884690857 -221.094826355 127.8105319214 -221.0933685303 126.9059906006 C-221.0878082069 124.1247911846 -221.0752632056 121.3436747441 -221.0625 118.5625 C-221.0574798671 116.6673188778 -221.0529178603 114.7721364833 -221.048828125 112.876953125 C-220.928546712 62.1875355533 -192.8645184764 15.4245926367 -149 -10 C-101.0886103487 -35.8891773667 -43.466004383 -35.2074635502 0 0 Z M-165.1875 66.66015625 C-178.9742379197 91.5536888603 -181.3803711621 120.503029691 -175 148 C-174.8443457031 148.6762744141 -174.6886914063 149.3525488281 -174.5283203125 150.0493164062 C-164.3665789619 192.268207866 -136.4682079908 230.7997475762 -108.453125 263.14453125 C-106.3962524774 265.519652159 -104.4140695051 267.9458467793 -102.4484863281 270.3967285156 C-98.8920917148 274.8290372117 -95.2451139325 278.938525224 -91.1171875 282.85546875 C-89.2539219489 284.675143166 -87.5801757817 286.6320668232 -85.8850097656 288.6083984375 C-82.005205618 293.0551983267 -77.9004650484 297.2454007585 -73.72265625 301.41015625 C-72.9445520717 302.1889369903 -72.1665961287 302.9678658616 -71.3887786865 303.7469329834 C-69.7709734337 305.3661986736 -68.1514098853 306.9836781671 -66.5305175781 308.5998535156 C-64.47549598 310.6491788701 -62.4249992171 312.7029636119 -60.3758172989 314.7581262589 C-58.77405597 316.3635383301 -57.1698746529 317.9665154458 -55.5650005341 319.5688152313 C-54.8089042427 320.3242546677 -54.0535213329 321.0804089435 -53.2989368439 321.8373584747 C-48.9271996451 326.2197943974 -44.4670204374 330.4337706914 -39.7705688477 334.4675445557 C-37.0053294515 336.8609031495 -34.3544595005 339.3734627033 -31.6875 341.875 C-26.8860713838 346.3415261852 -21.9666811102 350.5822475972 -16.85546875 354.6875 C-11.4782424087 359.0122852499 -6.2585440738 363.5330647115 -1 368 C26.1340387589 381.5670193795 43.8659612411 381.5670193795 71 368 C75.1017687957 364.4845946619 75.1017687957 364.4845946619 79.2019042969 360.9672851562 C82.2992375866 358.3090854544 85.4011724162 355.6569537964 88.51953125 353.0234375 C95.3492184755 347.2410988862 101.9956574886 341.3061397617 108.4997558594 335.1586914062 C111.3607976365 332.4550975299 114.2377547901 329.7847367059 117.1949310303 327.1861877441 C124.7377159525 320.5251911538 131.7945747322 313.3572698054 138.8962402344 306.2341308594 C140.8087363379 304.3159181942 142.7257185544 302.4022614642 144.6440534592 300.4898900986 C146.1482375879 298.9893579348 147.6499849421 297.48640496 149.1510562897 295.9827594757 C150.1925608851 294.9402868486 151.2360373067 293.899785362 152.279586792 292.8593597412 C156.1805514584 288.9394161142 159.9038389395 284.9142324284 163.5137786865 280.7243347168 C165.097252209 278.8871666294 166.7199217442 277.0914459133 168.3566894531 275.3020019531 C173.0152212324 270.2034170641 177.4253935558 264.9325411335 181.7504882812 259.5498046875 C183.0853019488 257.8941975829 184.4310295559 256.2478279169 185.77734375 254.6015625 C217.1625139528 216.0423407486 248.5067054241 169.0678381373 248.0625 117.4375 C248.057468103 116.418622025 248.0529082236 115.399741606 248.048828125 114.380859375 C247.8814520735 79.0645125186 227.1479745589 45.1905794968 196.6342773438 27.7387695312 C166.0151214575 11.1202247256 134.856683649 12.0680820735 104.23828125 30.2348632812 C91.6054356895 38.0656743101 81.1854861083 48.6656489166 73 61 C72.6917529297 61.4639013672 72.3835058594 61.9278027344 72.0659179688 62.4057617188 C59.2712885387 82.0524588606 56.604514376 103.1326803303 56 126 C50.2222222222 140.4444444444 50.2222222222 140.4444444444 40 143 C29.7817011507 143 25.8422291005 142.2737832804 18 136 C14 126 14 126 13.921875 121.8203125 C12.8422591628 81.3419643496 -5.0525071787 45.9066278414 -41.2744140625 25.9067382812 C-87.1001978025 1.8268060783 -140.2615316929 23.4900655736 -165.1875 66.66015625 Z " fill="#000000" transform="translate(221,69)"/>
</svg>
