<?xml version="1.0" encoding="UTF-8"?>
<!-- Generator: visioncortex VTracer 0.6.4 -->
<svg version="1.1" xmlns="http://www.w3.org/2000/svg" width="512" height="512">
<path d="M0 0 C0.7234336 -0.0023522 1.4468673 -0.0047045 2.1922232 -0.007128 C4.6411752 -0.0138391 7.0900744 -0.0133591 9.5390348 -0.0129499 C11.3026129 -0.0162472 13.0661901 -0.0199725 14.8297665 -0.0240914 C19.6954694 -0.0341346 24.56116 -0.0378319 29.4268719 -0.0404807 C34.6669321 -0.0443769 39.9069826 -0.0539556 45.1470366 -0.0626936 C57.8107765 -0.0824767 70.4745172 -0.0925262 83.1382687 -0.1014214 C89.0963787 -0.1058009 95.0544878 -0.1111686 101.0125971 -0.1164103 C120.808946 -0.1334238 140.6052944 -0.1479194 160.4016495 -0.155159 C165.5414947 -0.157069 170.6813399 -0.1589893 175.8211851 -0.1609449 C177.0987257 -0.1614287 178.3762662 -0.1619124 179.6925202 -0.1624108 C200.401327 -0.1707163 221.1100763 -0.1960614 241.8188579 -0.2285256 C263.0620497 -0.2615572 284.3052121 -0.2796042 305.5484297 -0.2828032 C317.4830767 -0.2849719 329.4176395 -0.2937722 341.3522615 -0.3192644 C351.5134779 -0.3409181 361.6745897 -0.3490482 371.8358264 -0.3392976 C377.0232491 -0.3347375 382.2104558 -0.3367381 387.3978491 -0.3560591 C392.143256 -0.3735817 396.8882877 -0.3727823 401.6336979 -0.3571618 C403.3537741 -0.354769 405.0738755 -0.3591947 406.7939129 -0.3709904 C409.1263193 -0.3859996 411.4573774 -0.3765146 413.7897491 -0.3607635 C415.7355186 -0.3622288 415.7355186 -0.3622288 417.7205966 -0.3637236 C421.6782505 0.222262 423.2739969 1.3408616 426.0836363 4.1342211 C428.5611047 7.8504237 428.3388743 9.7242412 428.3492851 14.1652527 C428.3558924 15.2507857 428.3558924 15.2507857 428.3626332 16.3582487 C428.3750209 18.8021249 428.3730752 21.2457828 428.3712492 23.6896868 C428.3771299 25.4519919 428.3838682 27.2142944 428.3913941 28.9765933 C428.4095146 33.8342521 428.4149936 38.6918567 428.4183809 43.5495452 C428.4241275 48.782842 428.441252 54.0161038 428.4567289 59.2493792 C428.4915197 71.8949123 428.507072 84.5404426 428.5208522 97.1860132 C428.527809 103.1377587 428.5369667 109.0895008 428.5459604 115.0412436 C428.5751682 134.8204667 428.5999619 154.5996864 428.6105843 174.3789291 C428.6116203 176.2787088 428.6116203 176.2787088 428.6126773 178.2168678 C428.6133693 179.4864576 428.6140613 180.7560473 428.6147743 182.0641095 C428.6161863 184.6368778 428.6176071 187.2096461 428.6190367 189.7824144 C428.6200944 191.6966966 428.6200944 191.6966966 428.6211736 193.6496512 C428.6334251 214.3305605 428.6762208 235.0112866 428.7319769 255.6921199 C428.7887279 276.9138917 428.8192324 298.1355708 428.8235964 319.3574193 C428.826681 331.2771293 428.8412279 343.1965847 428.8848772 355.1162214 C428.9219404 365.2660429 428.93518 375.4155409 428.9171723 385.5654203 C428.9087068 390.7452877 428.9116227 395.9244944 428.9449911 401.1042757 C428.9752698 405.846357 428.9732466 410.5872867 428.9455031 415.3293733 C428.941155 417.0447705 428.9486472 418.7602471 428.9691761 420.4755269 C429.1308698 434.8867951 429.1308698 434.8867951 424.7433004 439.9875669 C423.5515991 441.0683694 422.3320015 442.1193958 421.0836363 443.1342211 C419.9354217 444.3018837 418.7972134 445.4795562 417.67377 446.6710711 C416.4778641 447.8728023 415.2793302 449.0719226 414.0785093 450.2687426 C413.0869307 451.2629496 413.0869307 451.2629496 412.0753202 452.2772417 C409.9178181 454.4390995 407.7567337 456.5973332 405.595355 458.7553148 C404.0854281 460.2659161 402.5756496 461.7766658 401.0660124 463.2875566 C397.9165261 466.438511 394.7652535 469.5876649 391.612689 472.7355394 C387.5661654 476.7763368 383.5241874 480.8216466 379.483511 484.8682899 C376.3738956 487.9815101 373.2619133 491.0923555 370.1491976 494.2024755 C368.6568719 495.6941333 367.1652912 497.1865367 365.6744623 498.6796904 C363.5993096 500.7573713 361.5209982 502.8318393 359.4417906 504.9054613 C358.8241282 505.5251479 358.2064659 506.1448345 357.5700865 506.7832994 C352.7418485 511.5874317 350.9450891 512.2590933 344.1672726 512.2684422 C343.4438389 512.2707944 342.7204053 512.2731466 341.9750494 512.2755701 C339.5260974 512.2822812 337.0771982 512.2818013 334.6282377 512.2813921 C332.8646597 512.2846894 331.1010824 512.2884147 329.3375061 512.2925336 C324.4718032 512.3025768 319.6061125 512.3062741 314.7404007 512.3089229 C309.5003404 512.312819 304.26029 512.3223978 299.020236 512.3311357 C286.3564961 512.3509189 273.6927553 512.3609684 261.0290038 512.3698635 C255.0708938 512.3742431 249.1127848 512.3796107 243.1546755 512.3848524 C223.3583266 512.4018659 203.5619782 512.4163615 183.7656231 512.4236012 C178.6257779 512.4255112 173.4859327 512.4274315 168.3460875 512.4293871 C167.0685469 512.4298708 165.7910063 512.4303546 164.4747524 512.430853 C143.7659455 512.4391584 123.0571963 512.4645035 102.3484146 512.4969678 C81.1052229 512.5299993 59.8620605 512.5480463 38.6188429 512.5512454 C26.6841959 512.553414 14.749633 512.5622143 2.815011 512.5877066 C-7.3462053 512.6093602 -17.5073171 512.6174903 -27.6685539 512.6077398 C-32.8559765 512.6031797 -38.0431832 512.6051803 -43.2305765 512.6245012 C-47.9759834 512.6420239 -52.7210151 512.6412245 -57.4664254 512.6256039 C-59.1865015 512.6232112 -60.9066029 512.6276369 -62.6266403 512.6394326 C-64.9590467 512.6544417 -67.2901048 512.6449568 -69.6224766 512.6292057 C-71.5682461 512.6306709 -71.5682461 512.6306709 -73.553324 512.6321657 C-77.5109779 512.0461802 -79.1067244 510.9275805 -81.9163637 508.1342211 C-84.3938321 504.4180184 -84.1716017 502.544201 -84.1820126 498.1031895 C-84.1864174 497.3795008 -84.1908223 496.6558121 -84.1953606 495.9101934 C-84.2077483 493.4663173 -84.2058026 491.0226593 -84.2039766 488.5787554 C-84.2098573 486.8164502 -84.2165956 485.0541477 -84.2241215 483.2918488 C-84.242242 478.43419 -84.247721 473.5765855 -84.2511083 468.718897 C-84.2568549 463.4856002 -84.2739794 458.2523384 -84.2894564 453.019063 C-84.3242471 440.3735299 -84.3397995 427.7279995 -84.3535797 415.082429 C-84.3605365 409.1306834 -84.3696942 403.1789414 -84.3786879 397.2271986 C-84.4078956 377.4479754 -84.4326893 357.6687557 -84.4433117 337.889513 C-84.4440024 336.6229933 -84.4446931 335.3564735 -84.4454047 334.0515744 C-84.4460967 332.7819846 -84.4467887 331.5123948 -84.4475017 330.2043326 C-84.4489137 327.6315643 -84.4503345 325.058796 -84.4517641 322.4860277 C-84.4524693 321.2098396 -84.4531744 319.9336514 -84.453901 318.6187909 C-84.4661525 297.9378816 -84.5089482 277.2571556 -84.5647043 256.5763223 C-84.6214553 235.3545505 -84.6519598 214.1328713 -84.6563239 192.9110228 C-84.6594084 180.9913129 -84.6739553 169.0718574 -84.7176046 157.1522207 C-84.7546678 147.0023993 -84.7679074 136.8529013 -84.7498998 126.7030219 C-84.7414342 121.5231544 -84.7443502 116.3439477 -84.7777185 111.1641665 C-84.8079972 106.4220852 -84.805974 101.6811554 -84.7782305 96.9390688 C-84.7738825 95.2236717 -84.7813746 93.5081951 -84.8019036 91.7929153 C-84.9635972 77.3816471 -84.9635972 77.3816471 -80.5760279 72.2808752 C-79.3843266 71.2000727 -78.1647289 70.1490464 -76.9163637 69.1342211 C-75.7681491 67.9665584 -74.6299409 66.788886 -73.5064974 65.5973711 C-72.3105915 64.3956399 -71.1120577 63.1965195 -69.9112368 61.9996996 C-69.2501844 61.3368949 -68.589132 60.6740902 -67.9080477 59.9912004 C-65.7505456 57.8293426 -63.5894611 55.671109 -61.4280825 53.5131273 C-59.9181555 52.002526 -58.408377 50.4917764 -56.8987398 48.9808855 C-53.7492535 45.8299311 -50.597981 42.6807772 -47.4454165 39.5329027 C-43.3988929 35.4921054 -39.3569148 31.4467955 -35.3162384 27.4001522 C-32.206623 24.2869321 -29.0946408 21.1760866 -25.981925 18.0659666 C-24.4895993 16.5743089 -22.9980186 15.0819055 -21.5071898 13.5887518 C-19.432037 11.5110708 -17.3537256 9.4366029 -15.274518 7.3629808 C-14.3480245 6.433451 -14.3480245 6.433451 -13.4028139 5.4851427 C-8.5745759 0.6810104 -6.7778166 0.0093489 0 0 Z M11.0836363 26.1342211 C11.0836363 40.3242211 11.0836363 54.5142211 11.0836363 69.1342211 C52.4068086 70.087954 93.7270357 70.8378597 135.0590416 71.2789649 C139.9619522 71.3314812 144.8648407 71.385844 149.7677183 71.44135 C151.2315471 71.4578755 151.2315471 71.4578755 152.7249481 71.4747349 C168.4331277 71.6564515 184.1347105 71.9869632 199.8390035 72.3746385 C216.0092695 72.7704228 232.1761357 73.0013003 248.3510443 73.0859379 C257.4163641 73.1379268 266.4679449 73.2615647 275.5283194 73.5748835 C320.0357868 76.1322471 320.0357868 76.1322471 358.2782508 56.7446364 C367.5940979 47.9513518 376.1731095 37.9183759 383.0836363 27.1342211 C383.0836363 26.8042211 383.0836363 26.4742211 383.0836363 26.1342211 C260.3236363 26.1342211 137.5636363 26.1342211 11.0836363 26.1342211 Z M-19.5363741 48.6152849 C-20.0343097 49.1152448 -20.5322454 49.6152047 -21.04527 50.1303148 C-21.5543641 50.6384522 -22.0634581 51.1465895 -22.5879793 51.670125 C-23.6660387 52.7475024 -24.7428305 53.8261495 -25.8184633 54.9059496 C-27.4717371 56.5645714 -29.1302634 58.2178051 -30.7894106 59.8705492 C-31.8333512 60.9151506 -32.8769815 61.9600621 -33.92027 63.0053148 C-34.6702098 63.7522183 -34.6702098 63.7522183 -35.4352999 64.5142107 C-37.8567321 66.4847768 -37.8567321 66.4847768 -38.9163637 69.1342211 C-30.9963637 69.1342211 -23.0763637 69.1342211 -14.9163637 69.1342211 C-14.9163637 61.2142211 -14.9163637 53.2942211 -14.9163637 45.1342211 C-16.9664304 45.1342211 -18.1651855 47.2534843 -19.5363741 48.6152849 Z M374.3484163 66.948863 C354.3465945 87.3746689 354.0179454 109.748736 354.2443436 137.0781327 C354.3234971 143.1721801 354.5244252 149.2614141 354.7350489 155.3521113 C355.0410303 164.449985 355.0988405 173.5451549 355.1464695 182.6474413 C355.2376181 198.8675699 355.5148908 215.078653 355.9151793 231.293889 C356.3027883 247.0121894 356.5990159 262.7280027 356.7765074 278.450139 C356.7875418 279.4248132 356.7985762 280.3994874 356.8099449 281.4036971 C356.8647703 286.2950587 356.9178427 291.1864375 356.9700449 296.0778277 C357.4030175 336.4365974 358.1523612 376.7840956 359.0836363 417.1342211 C373.2736363 417.1342211 387.4636363 417.1342211 402.0836363 417.1342211 C402.0836363 294.3742211 402.0836363 171.6142211 402.0836363 45.1342211 C393.7304022 45.1342211 380.3770561 61.021098 374.3484163 66.948863 Z M-57.9163637 95.1342211 C-57.9163637 217.8942211 -57.9163637 340.6542211 -57.9163637 467.1342211 C-55.6063637 465.1542211 -53.2963637 463.1742211 -50.9163637 461.1342211 C-49.5899213 460.1756993 -48.2457663 459.2403118 -46.8727884 458.3497248 C-32.2416618 448.4567895 -16.54041 435.629347 -12.8766146 417.500783 C-9.4489109 397.8857869 -10.6048333 377.3443713 -11.1889973 357.5375518 C-11.4506003 348.4199195 -11.5007718 339.3043049 -11.5416494 330.1834532 C-11.6198842 313.9279695 -11.8578715 297.6790962 -12.2005434 281.4271898 C-12.5324799 265.667754 -12.7865467 249.9101321 -12.9388247 234.147893 C-12.9482827 233.1716425 -12.9577407 232.195392 -12.9674854 231.1895581 C-13.0144767 226.2905686 -13.0599678 221.3915666 -13.1047139 216.4925561 C-13.4761731 176.0349261 -14.118756 135.5855314 -14.9163637 95.1342211 C-29.1063637 95.1342211 -43.2963637 95.1342211 -57.9163637 95.1342211 Z M11.0836363 95.1342211 C11.0836363 201.3942211 11.0836363 307.6542211 11.0836363 417.1342211 C117.3436363 417.1342211 223.6036363 417.1342211 333.0836363 417.1342211 C333.0836363 310.8742211 333.0836363 204.6142211 333.0836363 95.1342211 C226.8236363 95.1342211 120.5636363 95.1342211 11.0836363 95.1342211 Z M-38.9163637 485.1342211 C-38.9163637 485.4642211 -38.9163637 485.7942211 -38.9163637 486.1342211 C83.8436363 486.1342211 206.6036363 486.1342211 333.0836363 486.1342211 C333.0836363 471.9442211 333.0836363 457.7542211 333.0836363 443.1342211 C291.7604639 442.1804882 250.4402369 441.4305824 209.1082309 440.9894772 C204.2053203 440.936961 199.3024319 440.8825982 194.3995543 440.8270922 C192.9357255 440.8105666 192.9357255 440.8105666 191.4423244 440.7937072 C175.7341449 440.6119906 160.0325621 440.281479 144.3282691 439.8938036 C128.1580031 439.4980193 111.9911369 439.2671419 95.8162283 439.1825043 C86.7509085 439.1305154 77.6993277 439.0068774 68.6389532 438.6935587 C20.1473053 437.0633624 -11.1216722 441.7594877 -38.9163637 485.1342211 Z M359.0836363 443.1342211 C359.0836363 451.0542211 359.0836363 458.9742211 359.0836363 467.1342211 C364.9375401 462.1272363 364.9375401 462.1272363 370.48598 456.8646898 C371.2304136 456.1215453 371.9748472 455.3784008 372.7418394 454.6127367 C373.4940074 453.8567015 374.2461753 453.1006664 375.0211363 452.3217211 C375.8003746 451.54635 376.5796128 450.7709789 377.3824644 449.9721117 C378.1178746 449.2354125 378.8532847 448.4987133 379.61098 447.7396898 C380.2786338 447.0709081 380.9462877 446.4021264 381.6341734 445.7130785 C383.196349 444.368663 383.196349 444.368663 383.0836363 443.1342211 C375.1636363 443.1342211 367.2436363 443.1342211 359.0836363 443.1342211 Z " fill="#000000" transform="translate(83.91636371612549,-0.13422107696533203)"/>
</svg>
