<?xml version="1.0" encoding="UTF-8"?>
<!-- Generator: visioncortex VTracer 0.6.4 -->
<svg version="1.1" xmlns="http://www.w3.org/2000/svg" width="512" height="512">
<path d="M0 0 C1.49179 -0.00446 2.98358 -0.00892 4.52058 -0.01351 C6.1934 -0.01342 7.86622 -0.01323 9.53903 -0.01295 C11.30261 -0.01625 13.06619 -0.01997 14.82977 -0.02409 C19.69547 -0.03413 24.56116 -0.03783 29.42687 -0.04048 C34.66693 -0.04438 39.90698 -0.05396 45.14704 -0.06269 C57.81078 -0.08248 70.47452 -0.09253 83.13827 -0.10142 C89.09638 -0.1058 95.05449 -0.11117 101.0126 -0.11641 C120.80895 -0.13342 140.60529 -0.14792 160.40165 -0.15516 C165.54149 -0.15707 170.68134 -0.15899 175.82119 -0.16094 C177.09873 -0.16143 178.37627 -0.16191 179.69252 -0.16241 C200.40133 -0.17072 221.11008 -0.19606 241.81886 -0.22853 C263.06205 -0.26156 284.30521 -0.2796 305.54843 -0.2828 C317.48308 -0.28497 329.41764 -0.29377 341.35226 -0.31926 C351.51348 -0.34092 361.67459 -0.34905 371.83583 -0.3393 C377.02325 -0.33474 382.21046 -0.33674 387.39785 -0.35606 C392.14326 -0.37358 396.88829 -0.37278 401.6337 -0.35716 C404.17097 -0.35363 406.70824 -0.36989 409.24546 -0.38677 C411.49488 -0.37389 411.49488 -0.37389 413.78975 -0.36076 C415.73552 -0.36223 415.73552 -0.36223 417.7206 -0.36372 C421.67825 0.22226 423.274 1.34086 426.08364 4.13422 C428.5611 7.85042 428.33887 9.72424 428.34929 14.16525 C428.35758 15.65719 428.36588 17.14912 428.37443 18.68626 C428.37356 20.35407 428.3725 22.02188 428.37125 23.68969 C428.37713 25.45199 428.38387 27.21429 428.39139 28.97659 C428.40951 33.83425 428.41499 38.69186 428.41838 43.54955 C428.42413 48.78284 428.44125 54.0161 428.45673 59.24938 C428.49152 71.89491 428.50707 84.54044 428.52085 97.18601 C428.52781 103.13776 428.53697 109.0895 428.54596 115.04124 C428.57517 134.82047 428.59996 154.59969 428.61058 174.37893 C428.61162 176.27871 428.61162 176.27871 428.61268 178.21687 C428.61337 179.48646 428.61406 180.75605 428.61477 182.06411 C428.61619 184.63688 428.61761 187.20965 428.61904 189.78241 C428.62009 191.6967 428.62009 191.6967 428.62117 193.64965 C428.63343 214.33056 428.67622 235.01129 428.73198 255.69212 C428.78873 276.91389 428.81923 298.13557 428.8236 319.35742 C428.82668 331.27713 428.84123 343.19658 428.88488 355.11622 C428.92194 365.26604 428.93518 375.41554 428.91717 385.56542 C428.90871 390.74529 428.91162 395.92449 428.94499 401.10428 C428.97527 405.84636 428.97325 410.58729 428.9455 415.32937 C428.9391 417.85745 428.9672 420.38555 428.99653 422.91346 C428.87281 435.1868 428.87281 435.1868 424.7433 439.98757 C423.53561 441.02596 422.32792 442.06436 421.08364 443.13422 C419.95838 444.30138 418.83312 445.46854 417.67377 446.67107 C416.47786 447.8728 415.27933 449.07192 414.07851 450.26874 C413.08693 451.26295 413.08693 451.26295 412.07532 452.27724 C409.91782 454.4391 407.75673 456.59733 405.59536 458.75531 C404.08543 460.26592 402.57565 461.77667 401.06601 463.28756 C397.91653 466.43851 394.76525 469.58766 391.61269 472.73554 C387.56617 476.77634 383.52419 480.82165 379.48351 484.86829 C376.3739 487.98151 373.26191 491.09236 370.1492 494.20248 C368.65687 495.69413 367.16529 497.18654 365.67446 498.67969 C363.59931 500.75737 361.521 502.83184 359.44179 504.90546 C358.82413 505.52515 358.20647 506.14483 357.57009 506.7833 C352.74185 511.58743 350.94509 512.25909 344.16727 512.26844 C342.67548 512.2729 341.18369 512.27736 339.64669 512.28195 C337.97387 512.28186 336.30106 512.28167 334.62824 512.28139 C332.86466 512.28469 331.10108 512.28841 329.33751 512.29253 C324.4718 512.30258 319.60611 512.30627 314.7404 512.30892 C309.50034 512.31282 304.26029 512.3224 299.02024 512.33114 C286.3565 512.35092 273.69276 512.36097 261.029 512.36986 C255.07089 512.37424 249.11278 512.37961 243.15468 512.38485 C223.35833 512.40187 203.56198 512.41636 183.76562 512.4236 C178.62578 512.42551 173.48593 512.42743 168.34609 512.42939 C167.06855 512.42987 165.79101 512.43035 164.47475 512.43085 C143.76595 512.43916 123.0572 512.4645 102.34841 512.49697 C81.10522 512.53 59.86206 512.54805 38.61884 512.55125 C26.6842 512.55341 14.74963 512.56221 2.81501 512.58771 C-7.34621 512.60936 -17.50732 512.61749 -27.66855 512.60774 C-32.85598 512.60318 -38.04318 512.60518 -43.23058 512.6245 C-47.97598 512.64202 -52.72102 512.64122 -57.46643 512.6256 C-60.0037 512.62207 -62.54097 512.63833 -65.07819 512.65521 C-66.5778 512.64663 -68.07742 512.63805 -69.62248 512.62921 C-71.56825 512.63067 -71.56825 512.63067 -73.55332 512.63217 C-77.51098 512.04618 -79.10672 510.92758 -81.91636 508.13422 C-84.39383 504.41802 -84.1716 502.5442 -84.18201 498.10319 C-84.19031 496.61126 -84.19861 495.11932 -84.20716 493.58218 C-84.20629 491.91437 -84.20522 490.24656 -84.20398 488.57876 C-84.20986 486.81645 -84.2166 485.05415 -84.22412 483.29185 C-84.24224 478.43419 -84.24772 473.57659 -84.25111 468.7189 C-84.25685 463.4856 -84.27398 458.25234 -84.28946 453.01906 C-84.32425 440.37353 -84.3398 427.728 -84.35358 415.08243 C-84.36054 409.13068 -84.36969 403.17894 -84.37869 397.2272 C-84.4079 377.44798 -84.43269 357.66876 -84.44331 337.88951 C-84.444 336.62299 -84.44469 335.35647 -84.4454 334.05157 C-84.4461 332.78198 -84.44679 331.51239 -84.4475 330.20433 C-84.44891 327.63156 -84.45033 325.0588 -84.45176 322.48603 C-84.45247 321.20984 -84.45317 319.93365 -84.4539 318.61879 C-84.46615 297.93788 -84.50895 277.25716 -84.5647 256.57632 C-84.62146 235.35455 -84.65196 214.13287 -84.65632 192.91102 C-84.65941 180.99131 -84.67396 169.07186 -84.7176 157.15222 C-84.75467 147.0024 -84.76791 136.8529 -84.7499 126.70302 C-84.74143 121.52315 -84.74435 116.34395 -84.77772 111.16417 C-84.808 106.42209 -84.80597 101.68116 -84.77823 96.93907 C-84.77182 94.41099 -84.79993 91.8829 -84.82926 89.35498 C-84.70554 77.08164 -84.70554 77.08164 -80.57603 72.28088 C-79.36834 71.24248 -78.16065 70.20408 -76.91636 69.13422 C-75.79111 67.96706 -74.66585 66.7999 -73.5065 65.59737 C-72.31059 64.39564 -71.11206 63.19652 -69.91124 61.9997 C-69.25018 61.33689 -68.58913 60.67409 -67.90805 59.9912 C-65.75055 57.82934 -63.58946 55.67111 -61.42808 53.51313 C-59.91816 52.00253 -58.40838 50.49178 -56.89874 48.98089 C-53.74925 45.82993 -50.59798 42.68078 -47.44542 39.5329 C-43.39889 35.49211 -39.35691 31.4468 -35.31624 27.40015 C-32.20662 24.28693 -29.09464 21.17609 -25.98193 18.06597 C-24.4896 16.57431 -22.99802 15.08191 -21.50719 13.58875 C-19.43204 11.51107 -17.35373 9.4366 -15.27452 7.36298 C-14.34802 6.43345 -14.34802 6.43345 -13.40281 5.48514 C-8.57458 0.68101 -6.77782 0.00935 0 0 Z M11.08364 26.13422 C11.08364 40.32422 11.08364 54.51422 11.08364 69.13422 C52.40737 70.08797 93.7268 70.83786 135.05904 71.27896 C139.96195 71.33148 144.86484 71.38584 149.76772 71.44135 C151.23155 71.45788 151.23155 71.45788 152.72495 71.47473 C168.43313 71.65645 184.13471 71.98696 199.839 72.37464 C216.00927 72.77042 232.17614 73.0013 248.35104 73.08594 C257.41636 73.13793 266.46794 73.26156 275.52832 73.57488 C319.96192 76.03684 319.96192 76.03684 358.27825 56.74464 C367.6104 47.77304 375.82751 37.84465 383.08364 27.13422 C383.08364 26.80422 383.08364 26.47422 383.08364 26.13422 C260.32364 26.13422 137.56364 26.13422 11.08364 26.13422 Z M-21.04527 50.13031 C-22.07974 51.1635 -23.11422 52.19668 -24.18004 53.26117 C-25.26865 54.35365 -26.35726 55.44614 -27.47886 56.57172 C-29.11758 58.20464 -29.11758 58.20464 -30.78941 59.87055 C-32.33919 61.42226 -32.33919 61.42226 -33.92027 63.00531 C-34.87748 63.96365 -35.83469 64.92199 -36.8209 65.90937 C-39.03063 67.74617 -39.03063 67.74617 -38.91636 69.13422 C-30.99636 69.13422 -23.07636 69.13422 -14.91636 69.13422 C-14.91636 61.21422 -14.91636 53.29422 -14.91636 45.13422 C-17.12067 45.13422 -19.67378 48.76044 -21.04527 50.13031 Z M374.34842 66.94886 C353.35171 88.78938 353.79077 113.34566 354.32518 142.2064 C354.43753 146.58913 354.58353 150.97058 354.73505 155.35211 C355.04103 164.44999 355.09884 173.54515 355.14647 182.64744 C355.23762 198.86757 355.51489 215.07865 355.91518 231.29389 C356.30279 247.01219 356.59902 262.728 356.77651 278.45014 C356.78754 279.42481 356.79858 280.39949 356.80994 281.4037 C356.86477 286.29506 356.91784 291.18644 356.97004 296.07783 C357.40302 336.4368 358.15235 376.78358 359.08364 417.13422 C373.27364 417.13422 387.46364 417.13422 402.08364 417.13422 C402.08364 294.37422 402.08364 171.61422 402.08364 45.13422 C394.06384 45.13422 379.77221 61.6999 374.34842 66.94886 Z M-57.91636 95.13422 C-57.91636 217.89422 -57.91636 340.65422 -57.91636 467.13422 C-55.60636 465.15422 -53.29636 463.17422 -50.91636 461.13422 C-48.85668 459.71588 -46.79651 458.29815 -44.72483 456.89737 C-30.67197 447.10909 -16.70449 434.82977 -12.87661 417.50078 C-9.69191 397.76855 -10.60152 377.45675 -11.189 357.53755 C-11.4506 348.41992 -11.50077 339.3043 -11.54165 330.18345 C-11.61988 313.92797 -11.85787 297.6791 -12.20054 281.42719 C-12.53248 265.66775 -12.78655 249.91013 -12.93882 234.14789 C-12.94828 233.17164 -12.95774 232.19539 -12.96749 231.18956 C-13.01448 226.29057 -13.05997 221.39157 -13.10471 216.49256 C-13.47617 176.03478 -14.11875 135.58591 -14.91636 95.13422 C-29.10636 95.13422 -43.29636 95.13422 -57.91636 95.13422 Z M11.08364 95.13422 C11.08364 201.39422 11.08364 307.65422 11.08364 417.13422 C117.34364 417.13422 223.60364 417.13422 333.08364 417.13422 C333.08364 310.87422 333.08364 204.61422 333.08364 95.13422 C226.82364 95.13422 120.56364 95.13422 11.08364 95.13422 Z M-38.91636 485.13422 C-38.91636 485.46422 -38.91636 485.79422 -38.91636 486.13422 C83.84364 486.13422 206.60364 486.13422 333.08364 486.13422 C333.08364 471.94422 333.08364 457.75422 333.08364 443.13422 C291.7599 442.18048 250.44047 441.43058 209.10823 440.98948 C204.20532 440.93696 199.30243 440.8826 194.39955 440.82709 C192.93573 440.81057 192.93573 440.81057 191.44232 440.79371 C175.73414 440.61199 160.03256 440.28148 144.32827 439.8938 C128.158 439.49802 111.99114 439.26714 95.81623 439.1825 C86.75091 439.13052 77.69933 439.00688 68.63895 438.69356 C19.89518 437.05489 -10.27472 442.85762 -38.91636 485.13422 Z M359.08364 443.13422 C359.08364 451.05422 359.08364 458.97422 359.08364 467.13422 C364.93754 462.12724 364.93754 462.12724 370.48598 456.86469 C371.23041 456.12155 371.97485 455.3784 372.74184 454.61274 C373.49401 453.8567 374.24618 453.10067 375.02114 452.32172 C375.80037 451.54635 376.57961 450.77098 377.38246 449.97211 C378.11787 449.23541 378.85328 448.49871 379.61098 447.73969 C380.27863 447.07091 380.94629 446.40213 381.63417 445.71308 C383.19635 444.36866 383.19635 444.36866 383.08364 443.13422 C375.16364 443.13422 367.24364 443.13422 359.08364 443.13422 Z " fill="#000000" transform="translate(83.91636371612549,-0.13422107696533203)"/>
</svg>
