<?xml version="1.0" encoding="UTF-8"?>
<!-- Generator: visioncortex VTracer 0.6.4 -->
<svg version="1.1" xmlns="http://www.w3.org/2000/svg" width="512" height="512">
<path d="M0 0 C0.84929 -0.00015 1.69858 -0.00029 2.57361 -0.00044 C5.37096 0.00025 8.16824 0.00802 10.96558 0.01587 C12.90899 0.01773 14.85241 0.01916 16.79582 0.02016 C21.90365 0.02397 27.01145 0.03379 32.11926 0.04486 C37.33431 0.0551 42.54935 0.05966 47.7644 0.0647 C57.99163 0.07541 68.21883 0.09247 78.44604 0.11353 C78.49256 0.86318 78.53907 1.61283 78.58699 2.38519 C78.806 5.8111 79.04189 9.23564 79.27808 12.6604 C79.38738 14.4294 79.38738 14.4294 79.4989 16.23413 C80.24709 26.77895 82.41908 33.85862 89.75854 41.61353 C99.4451 48.18068 108.22167 49.26372 119.63281 49.25879 C121.30956 49.26383 121.30956 49.26383 123.02019 49.26897 C126.71033 49.27845 130.40042 49.28042 134.09058 49.28149 C136.66119 49.28471 139.2318 49.28807 141.80241 49.29158 C147.18989 49.29757 152.57736 49.29942 157.96484 49.29883 C164.85799 49.29873 171.75104 49.31238 178.64417 49.3296 C183.95367 49.34074 189.26315 49.34275 194.57267 49.34222 C197.1135 49.3434 199.65432 49.34781 202.19514 49.35555 C205.75386 49.36538 209.31237 49.36246 212.87109 49.35645 C213.914 49.36206 214.9569 49.36768 216.0314 49.37347 C226.43312 49.32894 235.04579 47.57086 243.44604 41.11353 C252.43679 31.97168 253.38664 20.84766 254.00854 8.67603 C254.09233 7.06856 254.17612 5.4611 254.26245 3.80493 C254.32304 2.58677 254.38362 1.3686 254.44604 0.11353 C265.6167 0.04383 276.78727 -0.00939 287.9581 -0.04191 C293.14589 -0.05753 298.33353 -0.07869 303.52124 -0.11279 C308.53332 -0.14553 313.54526 -0.16336 318.55744 -0.17111 C320.46388 -0.17662 322.37032 -0.1874 324.2767 -0.20366 C337.96436 -0.31576 348.7225 -0.18021 359.44604 9.11353 C367.75342 17.73439 369.5575 25.37328 369.60426 36.99092 C369.6092 37.88541 369.61414 38.77989 369.61923 39.70149 C369.63458 42.69861 369.64296 45.69572 369.65137 48.69287 C369.66095 50.84137 369.67096 52.98986 369.68137 55.13835 C369.70841 60.97257 369.72942 66.80679 369.74937 72.64104 C369.77123 78.73761 369.79862 84.83416 369.82542 90.93071 C369.87535 102.47614 369.92029 114.02157 369.96345 125.56703 C370.01282 138.7108 370.06774 151.85455 370.12313 164.9983 C370.23694 192.03669 370.34378 219.0751 370.44604 246.11353 C371.71674 246.7359 372.98743 247.35828 374.29663 247.99951 C381.28672 251.56077 386.94217 256.88721 389.81323 264.37524 C392.12583 274.38223 391.38269 283.71902 386.20776 292.62134 C381.45089 299.35057 375.31449 302.99027 367.44604 305.11353 C361.9776 305.68214 356.54333 305.65354 351.04932 305.62146 C348.5847 305.63082 348.5847 305.63082 346.0703 305.64037 C341.52865 305.65702 336.98734 305.64884 332.4457 305.63642 C327.54036 305.62736 322.63509 305.64135 317.72977 305.65234 C308.12775 305.67012 298.52587 305.66629 288.92385 305.65469 C281.11905 305.64565 273.31429 305.64444 265.50949 305.64879 C264.39804 305.6494 263.28658 305.65001 262.14145 305.65065 C259.88345 305.65192 257.62545 305.65322 255.36745 305.65454 C234.20161 305.66594 213.03584 305.65283 191.87001 305.63133 C173.71466 305.61346 155.5594 305.61657 137.40405 305.63501 C116.31318 305.65642 95.22236 305.66484 74.13147 305.65256 C71.88185 305.65129 69.63222 305.65003 67.3826 305.64879 C66.27578 305.64817 65.16897 305.64755 64.02861 305.64692 C56.23455 305.64347 48.44052 305.64929 40.64645 305.65871 C31.14614 305.66993 21.64597 305.66687 12.14567 305.64558 C7.29985 305.63508 2.45425 305.63094 -2.39157 305.64418 C-7.64698 305.65833 -12.90183 305.64142 -18.15723 305.62146 C-19.68544 305.63038 -21.21365 305.63931 -22.78817 305.6485 C-32.87154 305.57412 -39.78678 304.29164 -48.30396 298.61353 C-54.88741 291.52365 -57.9111 284.71563 -58.24146 274.98853 C-57.89873 266.44478 -55.64463 260.77354 -50.17896 254.30103 C-42.22062 247.66908 -42.22062 247.66908 -37.55396 246.11353 C-37.55157 244.99923 -37.54918 243.88493 -37.54672 242.73687 C-37.48756 215.6114 -37.412 188.48601 -37.31824 161.36064 C-37.27329 148.24295 -37.23388 135.1253 -37.20752 122.00757 C-37.18453 110.57286 -37.15112 99.13824 -37.10525 87.70359 C-37.08133 81.65023 -37.0626 75.59695 -37.05634 69.54354 C-37.05028 63.8423 -37.03026 58.14128 -36.99968 52.44012 C-36.99091 50.35123 -36.98717 48.26232 -36.98895 46.17342 C-36.99061 43.31276 -36.97384 40.45276 -36.95268 37.59219 C-36.94807 35.9938 -36.94346 34.39542 -36.93872 32.74859 C-36.01726 21.64814 -32.0918 14.48636 -24.11646 6.80103 C-16.36168 0.95093 -9.47324 -0.01371 0 0 Z M156.44604 63.11353 C150.75825 69.11731 139.44604 83.49953 139.44604 92.11353 C134.45712 90.68593 130.47105 88.46925 126.07104 85.73853 C113.88813 77.81413 113.88813 77.81413 99.82104 76.67603 C94.16954 79.08315 92.08283 82.5384 89.82104 88.13306 C88.09582 93.523 88.07313 98.62305 88.19604 104.23853 C88.20378 105.66358 88.20378 105.66358 88.21167 107.11743 C88.26808 112.20104 88.58327 117.08994 89.44604 122.11353 C88.31167 121.96915 87.17729 121.82478 86.00854 121.67603 C83.75011 121.39759 83.75011 121.39759 81.44604 121.11353 C79.21854 120.83509 79.21854 120.83509 76.94604 120.55103 C65.52134 119.44029 55.78809 119.90212 46.44604 127.11353 C43.15899 131.73594 42.87958 135.52978 43.44604 141.11353 C46.94853 155.8473 57.12522 167.54586 67.44604 178.11353 C68.11249 178.84185 68.77894 179.57017 69.46558 180.32056 C75.04639 186.27735 81.65327 190.64023 88.44604 195.11353 C86.82393 198.35775 85.53782 200.30764 83.25854 202.98853 C76.99665 210.94389 70.95873 220.71739 71.44604 231.11353 C73.62076 235.46296 75.50542 237.15806 79.44604 240.11353 C99.63187 245.83786 120.99272 239.29008 138.78589 229.42993 C145.71254 225.04625 152.51916 219.88512 157.57104 213.37524 C160.43278 209.92327 163.08432 209.63433 167.44604 209.11353 C173.17585 210.52085 175.59401 213.35641 179.26245 217.80103 C194.6395 234.08585 217.52048 241.39869 239.32495 242.14478 C246.09768 242.09342 251.19195 241.64309 256.94604 237.73853 C259.95013 234.58424 261.33232 232.20628 261.78589 227.8479 C260.80072 217.02235 253.18016 207.03242 246.13354 199.15259 C244.44604 197.11353 244.44604 197.11353 244.44604 195.11353 C246.28198 193.70337 246.28198 193.70337 248.82104 192.05103 C254.49614 188.18491 259.45906 183.82034 264.44604 179.11353 C265.19757 178.43806 265.94909 177.76259 266.72339 177.06665 C276.92617 167.52731 289.44474 151.76092 290.07104 137.23853 C289.77274 132.52673 288.72058 129.64658 285.44604 126.11353 C279.90592 121.93017 276.23585 120.98785 269.37183 121.01587 C267.98286 121.01909 266.5939 121.02231 265.16284 121.02563 C262.98271 121.0382 262.98271 121.0382 260.75854 121.05103 C258.56102 121.05779 258.56102 121.05779 256.31909 121.0647 C252.6947 121.0765 249.07039 121.09297 245.44604 121.11353 C244.34111 113.97939 244.46063 107.11139 244.6062 99.90259 C244.3531 92.33416 243.27451 86.0781 238.44604 80.11353 C233.20381 76.18185 229.80897 76.26135 223.44604 77.11353 C214.9642 79.59844 207.70155 84.18463 200.44604 89.11353 C198.44641 90.4474 196.44649 91.78087 194.44604 93.11353 C193.94976 92.08614 193.45347 91.05876 192.94214 90.00024 C185.40228 72.55258 185.40228 72.55258 171.38354 60.86353 C165.60628 59.38848 161.70552 60.52304 156.44604 63.11353 Z M-40.55396 270.11353 C-41.30162 276.51024 -41.45316 278.81468 -37.74146 284.17603 C-33.36725 288.20716 -30.76269 288.23898 -25.0143 288.24495 C-23.63199 288.24879 -22.24967 288.25264 -20.82547 288.25659 C-19.2968 288.25573 -17.76814 288.25486 -16.19315 288.25397 C-13.76896 288.25842 -13.76896 288.25842 -11.29581 288.26297 C-6.79721 288.27106 -2.29863 288.27283 2.19997 288.27357 C7.04669 288.27542 11.8934 288.28296 16.74011 288.2897 C27.34324 288.3033 37.94636 288.30931 48.54949 288.31371 C55.16635 288.31647 61.7832 288.32071 68.40006 288.32522 C86.70982 288.33741 105.01958 288.34771 123.32934 288.35109 C124.50165 288.35131 125.67397 288.35153 126.8818 288.35176 C128.05696 288.35198 129.23212 288.3522 130.44289 288.35242 C132.82431 288.35286 135.20573 288.35331 137.58716 288.35376 C139.35907 288.35409 139.35907 288.35409 141.16678 288.35443 C160.31708 288.35838 179.46734 288.37584 198.61763 288.39912 C218.26528 288.42281 237.9129 288.43529 257.56056 288.43646 C268.59756 288.43738 279.63452 288.44316 290.6715 288.46128 C300.06779 288.47665 309.46402 288.48182 318.86031 288.47354 C323.65684 288.46963 328.45322 288.47062 333.24973 288.4846 C338.44367 288.4996 343.63732 288.4915 348.83127 288.48102 C350.35547 288.48907 351.87968 288.49713 353.45007 288.50543 C354.8376 288.49884 356.22513 288.49225 357.65471 288.48546 C359.45385 288.48636 359.45385 288.48636 361.28934 288.48727 C365.84381 287.94803 368.39772 286.04852 371.75854 283.05103 C374.19152 278.81585 374.32634 274.81597 373.44604 270.11353 C370.73673 265.89904 368.94236 264.36168 364.44604 262.11353 C361.32055 261.81075 361.32055 261.81075 357.78613 261.85626 C356.40245 261.84981 355.01876 261.84336 353.59314 261.83671 C352.06807 261.83981 350.543 261.84291 348.97171 261.8461 C347.35544 261.84157 345.73917 261.83704 344.07392 261.83237 C339.5795 261.82011 335.08515 261.8204 330.59071 261.82276 C325.74671 261.82317 320.90274 261.81214 316.05875 261.80264 C306.56558 261.78601 297.07243 261.78053 287.57925 261.77942 C279.86486 261.77847 272.15048 261.77436 264.43609 261.76802 C242.57645 261.7504 220.71683 261.74118 198.85719 261.74268 C197.67818 261.74276 196.49916 261.74284 195.28442 261.74292 C193.51375 261.74304 193.51375 261.74304 191.70731 261.74317 C172.57067 261.74398 153.4341 261.72484 134.29748 261.69664 C114.65996 261.66794 95.02248 261.6541 75.38494 261.65583 C64.35518 261.6565 53.3255 261.65097 42.29575 261.62947 C32.90572 261.61129 23.51581 261.60689 14.12576 261.62049 C9.33313 261.62704 4.54072 261.62708 -0.25189 261.60979 C-5.44332 261.59124 -10.63421 261.60357 -15.82565 261.61905 C-17.34626 261.60876 -18.86687 261.59847 -20.43356 261.58788 C-21.82247 261.59707 -23.21137 261.60627 -24.64236 261.61575 C-25.84087 261.61531 -27.03938 261.61488 -28.2742 261.61443 C-34.20349 262.51672 -37.03515 265.42178 -40.55396 270.11353 Z " fill="#D45DFF" transform="translate(89.553955078125,63.886474609375)"/>
<path d="M0 0 C1.74184 -0.00745 1.74184 -0.00745 3.51888 -0.01505 C7.3696 -0.02968 11.22029 -0.03647 15.07104 -0.04199 C17.74281 -0.04774 20.41458 -0.0535 23.08635 -0.05927 C28.69266 -0.06978 34.29896 -0.07562 39.90527 -0.0791 C47.09143 -0.08459 54.27739 -0.10862 61.46349 -0.13707 C66.98391 -0.15569 72.50428 -0.16091 78.02472 -0.16244 C80.6741 -0.16547 83.32347 -0.1735 85.97282 -0.18662 C89.67864 -0.20366 93.384 -0.20181 97.08984 -0.19531 C98.18565 -0.20453 99.28145 -0.21374 100.41046 -0.22324 C105.92177 -0.19295 110.03245 -0.04835 114.73901 3.16113 C120.27783 9.19228 120.91254 12.5615 120.97729 20.55176 C120.98537 21.48913 120.99344 22.4265 121.00175 23.39227 C121.0156 25.3795 121.02632 27.36675 121.03418 29.354 C121.05137 32.38523 121.09525 35.41535 121.1394 38.44629 C121.14953 40.37727 121.15805 42.30826 121.16479 44.23926 C121.1823 45.14259 121.19981 46.04592 121.21785 46.97662 C121.19862 52.59036 120.4012 55.87511 116.73901 60.16113 C109.80248 65.62181 103.40713 65.31301 94.84937 65.32227 C93.20209 65.32971 93.20209 65.32971 91.52155 65.33731 C87.8909 65.35191 84.26031 65.35873 80.62964 65.36426 C78.10244 65.37001 75.57524 65.37577 73.04803 65.38153 C67.74874 65.39203 62.44945 65.39788 57.15015 65.40137 C50.37014 65.40685 43.59034 65.43088 36.8104 65.45934 C31.58925 65.47799 26.36815 65.48317 21.14697 65.4847 C18.648 65.48772 16.14903 65.49574 13.65009 65.50889 C10.14865 65.526 6.6477 65.52406 3.14624 65.51758 C1.60758 65.5314 1.60758 65.5314 0.03784 65.5455 C-6.34975 65.50861 -11.34787 64.64437 -17.26099 62.16113 C-22.98116 56.32179 -23.42739 52.63742 -23.46411 44.73535 C-23.46981 43.79561 -23.47551 42.85587 -23.48138 41.88765 C-23.49084 39.89622 -23.49737 37.90478 -23.50122 35.91333 C-23.51091 32.8713 -23.54193 29.82995 -23.57349 26.78809 C-23.58002 24.85385 -23.58527 22.9196 -23.58911 20.98535 C-23.60146 20.07686 -23.6138 19.16837 -23.62653 18.23235 C-23.60939 13.35652 -23.3773 10.00815 -20.26099 6.16113 C-13.57906 0.03603 -8.7935 0.00892 0 0 Z " fill="#D35DFF" transform="translate(207.260986328125,33.8388671875)"/>
<path d="M0 0 C19.8 0 39.6 0 60 0 C61.23059 4.92236 62.3383 9.53965 63.14502 14.50098 C63.4451 16.33393 63.4451 16.33393 63.75125 18.20392 C63.95967 19.50303 64.16808 20.80214 64.38281 22.14062 C64.60194 23.4992 64.82107 24.85777 65.04684 26.25751 C65.50763 29.12497 65.96642 31.99276 66.42334 34.86084 C67.12062 39.22258 67.83157 43.58195 68.54297 47.94141 C68.99043 50.73684 69.43707 53.53241 69.88281 56.32812 C70.09528 57.61914 70.30774 58.91016 70.52664 60.2403 C73.58317 79.71638 73.58317 79.71638 70.3125 86.5 C66.08475 91.07055 62.92557 93.86369 56.54175 94.16113 C51.92359 94.20644 47.30587 94.23527 42.6875 94.25 C41.08197 94.27062 39.47645 94.29125 37.82227 94.3125 C36.27604 94.31766 34.7298 94.32281 33.13672 94.32812 C31.72093 94.33747 30.30513 94.34682 28.84644 94.35645 C23.70155 93.87967 20.4851 92.03611 16.3125 89.125 C10.20898 80.877 9.95071 67.46686 8.30078 57.53906 C8.06087 56.10912 7.82096 54.67918 7.57378 53.2059 C7.0718 50.20613 6.57189 47.20601 6.07397 44.20557 C5.31105 39.61628 4.53772 35.02883 3.76367 30.44141 C3.27541 27.51573 2.78776 24.58995 2.30078 21.66406 C2.06958 20.2973 1.83838 18.93055 1.60017 17.52237 C1.38963 16.24349 1.17908 14.96461 0.96216 13.64697 C0.68261 11.97038 0.68261 11.97038 0.39742 10.25992 C0 7 0 7 0 0 Z " fill="#BA48FF" transform="translate(351,384)"/>
<path d="M0 0 C1.06367 0.00222 2.12735 0.00444 3.22325 0.00673 C5.02501 0.00684 5.02501 0.00684 6.86316 0.00696 C8.17042 0.01212 9.47769 0.01728 10.82457 0.0226 C12.15492 0.02401 13.48527 0.02543 14.85593 0.02689 C19.12544 0.03251 23.39491 0.04506 27.66441 0.05775 C30.55048 0.06277 33.43655 0.06733 36.32262 0.07143 C43.41573 0.08248 50.50882 0.09924 57.60191 0.12025 C57.04852 9.63105 55.80312 18.90491 54.20348 28.29213 C53.96785 29.69513 53.73222 31.09814 53.48946 32.54366 C52.99307 35.48879 52.49373 38.43342 51.99156 41.37758 C51.22701 45.86966 50.47642 50.36392 49.72691 54.85854 C49.24077 57.73238 48.75382 60.60608 48.26598 63.47963 C48.04399 64.81419 47.82199 66.14875 47.59328 67.52376 C44.56356 85.11596 44.56356 85.11596 39.72691 90.05775 C31.89531 95.22661 24.37578 94.4524 15.22691 94.43275 C13.73418 94.44887 12.24144 94.46498 10.70348 94.48158 C9.25973 94.48223 7.81598 94.48287 6.32848 94.48354 C5.01444 94.48652 3.7004 94.4895 2.34654 94.49257 C-3.49046 93.91222 -7.2571 92.33566 -11.27309 88.05775 C-17.48004 79.47755 -14.32454 67.06047 -12.74661 57.19208 C-12.50914 55.78006 -12.27166 54.36803 -12.02699 52.91322 C-11.78521 51.42607 -11.54342 49.93892 -11.29431 48.40671 C-10.78585 45.29238 -10.27211 42.17892 -9.75331 39.0663 C-8.95567 34.27822 -8.17458 29.48766 -7.39613 24.69643 C-6.89904 21.66437 -6.40102 18.63246 -5.90199 15.60072 C-5.66654 14.16239 -5.43109 12.72405 -5.18851 11.24213 C-4.85828 9.2679 -4.85828 9.2679 -4.52138 7.2538 C-4.32818 6.09023 -4.13499 4.92667 -3.93594 3.72784 C-3.20012 0.16047 -3.20012 0.16047 0 0 Z " fill="#ED72FF" transform="translate(103.39808654785156,383.87974548339844)"/>
<path d="M0 0 C19.8 0 39.6 0 60 0 C60.12033 20.22375 60.12033 20.22375 60.14648 28.85547 C60.16441 34.74146 60.18559 40.6273 60.22632 46.51318 C60.25895 51.25941 60.27686 56.00548 60.28463 60.75181 C60.29017 62.56108 60.30098 64.37035 60.31719 66.17955 C60.33902 68.71679 60.34023 71.25418 60.34058 73.7915 C60.34724 75.2349 60.3539 76.6783 60.36076 78.16544 C59.82471 83.86321 58.14538 86.92621 54 90.8125 C47.66029 95.43521 40.34461 94.25901 32.77734 94.29517 C30.27325 94.31234 27.76939 94.35624 25.26562 94.40039 C22.88344 94.41296 22.88344 94.41296 20.45312 94.42578 C19.00067 94.44036 17.54822 94.45495 16.05176 94.46997 C10.30085 93.80291 6.53869 91.66017 2.625 87.4375 C-0.333 83.0005 -0.12154 79.36334 -0.11353 74.13208 C-0.11345 72.49061 -0.11337 70.84913 -0.1133 69.15791 C-0.10819 67.36179 -0.10297 65.56566 -0.09766 63.76953 C-0.09579 61.93536 -0.09437 60.10119 -0.09337 58.26701 C-0.08955 53.43864 -0.07972 48.61029 -0.06866 43.78192 C-0.05664 37.98912 -0.05205 32.19632 -0.04621 26.40351 C-0.03651 17.60232 -0.01735 8.80119 0 0 Z " fill="#D35DFF" transform="translate(226,384)"/>
<path d="M0 0 C19.43123 -0.56097 36.1716 0.37662 54 9 C54.89848 9.42926 55.79695 9.85852 56.72266 10.30078 C75.67366 19.98079 90.64533 35.36266 99.35547 54.79297 C100 57 100 57 99 60 C69.69377 60.986 43.06952 54.2223 21 34 C11.85978 25.09066 4.62959 14.94917 0 3 C0 2.01 0 1.02 0 0 Z " fill="#DF66FF" transform="translate(148,200)"/>
<path d="M0 0 C-1.56195 12.47196 -12.44887 23.54645 -21 32 C-22.18529 33.20076 -22.18529 33.20076 -23.39453 34.42578 C-43.35855 53.59521 -68.92909 59.57534 -95.75 59.10547 C-97.1525 59.07066 -98.555 59.03586 -100 59 C-100.33 58.34 -100.66 57.68 -101 57 C-97.40465 47.93241 -92.40249 40.28346 -86 33 C-85.09508 31.88045 -85.09508 31.88045 -84.17188 30.73828 C-66.12441 9.01308 -28.62981 -9.54327 0 0 Z " fill="#C854FF" transform="translate(364,201)"/>
<path d="M0 0 C0.66 0 1.32 0 2 0 C17.29259 21.23408 23.09085 46.10163 20 72 C18.86473 77.54628 17.02851 80.62752 13.25 84.8125 C9.90889 88.64126 7.02737 92.33962 4.5 96.75 C3.675 98.1525 2.85 99.555 2 101 C1.34 101 0.68 101 0 101 C-1.06386 99.43745 -2.04936 97.8214 -3 96.1875 C-6.35802 90.68742 -10.28194 86.31196 -14.86328 81.80078 C-22.217 72.16163 -20.05777 53.80829 -18.6792 42.32861 C-16.07486 26.85761 -9.37605 12.5014 0 0 Z " fill="#D45DFF" transform="translate(255,139)"/>
<path d="M0 0 C9.86459 1.54809 18.63757 7.4985 26 14 C26.76313 14.54398 27.52625 15.08797 28.3125 15.64844 C31.0079 19.40453 29.71083 22.55463 29 27 C28.87096 28.74972 28.76588 30.50136 28.68359 32.25391 C28.6417 33.12725 28.5998 34.00059 28.55664 34.90039 C28.51732 35.77889 28.47801 36.65738 28.4375 37.5625 C28.39432 38.4758 28.35113 39.3891 28.30664 40.33008 C28.20188 42.55327 28.10058 44.77662 28 47 C22.04611 44.76729 16.47518 41.7486 10.8125 38.875 C7.2048 37.00707 7.2048 37.00707 4.07812 35.97266 C3.39234 35.65168 2.70656 35.3307 2 35 C-1.75849 24.2883 -1.82083 11.12727 0 0 Z " fill="#DD65FF" transform="translate(193,156)"/>
<path d="M0 0 C1.30331 8.04057 1.28803 15.87614 1 24 C1.02191 25.12922 1.04383 26.25844 1.06641 27.42188 C0.74716 31.21351 0.29959 32.91925 -2 36 C-8.17687 40.30688 -15.70119 44.08007 -23 46 C-24.32 45.67 -25.64 45.34 -27 45 C-27.33687 41.62532 -27.66961 38.25032 -28 34.875 C-28.09539 33.92367 -28.19078 32.97234 -28.28906 31.99219 C-29.3347 21.23708 -29.3347 21.23708 -29 18 C-22.84842 11.48657 -9.33105 0 0 0 Z " fill="#CA55FF" transform="translate(318,155)"/>
<path d="M0 0 C5.92902 5.68536 10.3919 12.66742 14 20 C14 20.66 14 21.32 14 22 C-4.17058 22.7493 -18.54743 19.96742 -34 10 C-34.66 9.01 -35.32 8.02 -36 7 C-33.97183 4.97183 -29.93279 5.11474 -27.25 4.6875 C-20.48649 3.54701 -14.1879 1.97909 -7.73438 -0.32812 C-4.59145 -1.10039 -3.02535 -1.15158 0 0 Z " fill="#C954FF" transform="translate(321,268)"/>
<path d="M0 0 C4.45633 1.27108 8.90756 2.15968 13.46484 2.98828 C6.06213 11.42965 -7.49781 16.69668 -18.53516 17.98828 C-24.54941 18.20131 -30.51846 18.16878 -36.53516 17.98828 C-35.24918 13.69324 -33.62528 10.14568 -31.22266 6.36328 C-30.64902 5.44289 -30.07539 4.5225 -29.48438 3.57422 C-21.27892 -7.31157 -11.33725 -3.38517 0 0 Z " fill="#DF66FF" transform="translate(213.53515625,272.01171875)"/>
</svg>
