<?xml version="1.0" standalone="no"?>
<!DOCTYPE svg PUBLIC "-//W3C//DTD SVG 20010904//EN"
 "http://www.w3.org/TR/2001/REC-SVG-20010904/DTD/svg10.dtd">
<svg version="1.0" xmlns="http://www.w3.org/2000/svg"
 width="512.000000pt" height="512.000000pt" viewBox="0 0 512.000000 512.000000"
 preserveAspectRatio="xMidYMid meet">
<metadata>
Created by potrace 1.16, written by Peter Selinger 2001-2019
</metadata>
<rect width="100%" height="100%" fill="white"/>
<g transform="translate(0.000000,512.000000) scale(0.100000,-0.100000)"
fill="#000000" stroke="none">
<path d="M1422 5109 c-46 -14 -118 -88 -131 -135 -6 -22 -11 -94 -11 -160 l0
-122 -197 -5 c-216 -5 -282 -17 -426 -77 -218 -90 -415 -269 -530 -480 -50
-90 -103 -258 -117 -365 -8 -65 -10 -473 -8 -1475 l3 -1385 27 -100 c106 -384
389 -666 775 -773 l98 -27 1655 0 1655 0 100 27 c384 106 667 389 773 775 l27
98 3 1395 c3 1541 5 1494 -60 1679 -125 360 -443 631 -815 696 -52 9 -149 15
-244 15 l-159 0 0 121 c0 148 -12 191 -66 246 -98 98 -261 76 -331 -45 -26
-44 -28 -56 -31 -184 l-4 -138 -848 0 -848 0 -4 138 c-3 128 -5 140 -31 184
-49 84 -160 126 -255 97z m2718 -849 c154 -25 292 -98 390 -208 58 -65 133
-209 149 -290 6 -29 11 -120 11 -202 l0 -150 -2130 0 -2130 0 0 153 c0 180 14
247 70 357 95 181 275 311 474 340 81 12 3090 12 3166 0z m548 -2297 l-3
-1028 -22 -65 c-67 -194 -227 -352 -418 -413 l-70 -22 -1615 0 -1615 0 -70 22
c-188 60 -338 205 -414 401 l-26 67 -3 1033 -2 1032 2130 0 2130 0 -2 -1027z"/>
<path d="M1405 2227 c-66 -22 -99 -43 -142 -90 -52 -57 -71 -93 -84 -163 -26
-138 53 -285 186 -346 76 -35 191 -33 267 5 62 30 115 83 150 149 19 36 23 58
23 138 0 106 -15 147 -81 220 -73 80 -218 120 -319 87z"/>
<path d="M2460 2224 c-267 -97 -297 -447 -50 -583 60 -33 71 -36 150 -36 72 1
93 5 136 27 75 40 107 70 145 140 31 58 34 70 34 148 0 78 -3 90 -34 148 -58
106 -144 161 -265 168 -50 3 -84 -1 -116 -12z"/>
<path d="M3522 2222 c-66 -24 -118 -65 -159 -126 -43 -63 -56 -116 -51 -201 8
-116 71 -211 176 -262 48 -24 69 -28 137 -28 105 1 167 27 234 101 114 125
114 303 0 428 -85 94 -221 129 -337 88z"/>
</g>
</svg>
