<?xml version="1.0" encoding="UTF-8"?><svg version="1.1" xmlns="http://www.w3.org/2000/svg" width="512" height="512" viewBox="0 0 512 512"><path d="M0 0 C13.55684 10.95786 21.18721 29.80047 29.625 44.67969 C32.83497 50.32585 36.07679 55.95344 39.32422 61.57812 C39.94192 62.64853 40.55962 63.71894 41.19604 64.82178 C45.3209 71.96185 49.47378 79.0852 53.63672 86.20312 C59.4049 96.06575 65.08102 105.97905 70.73804 115.90576 C75.01619 123.40504 79.33655 130.87772 83.69922 138.32812 C88.75555 146.96314 93.74477 155.63426 98.69922 164.32812 C104.23981 174.04922 109.83292 183.737 115.48267 193.39502 C121.63689 203.91897 127.72292 214.48193 133.80811 225.0459 C136.93602 230.47472 140.0678 235.90132 143.19922 241.32812 C144.44924 243.49478 145.69924 245.66145 146.94922 247.82812 C147.56797 248.90062 148.18672 249.97312 148.82422 251.07812 C160.69922 271.66146 172.57422 292.24479 184.44922 312.82812 C185.06853 313.90151 185.68785 314.9749 186.32593 316.08081 C187.57055 318.23834 188.81486 320.39605 190.05884 322.55396 C193.26347 328.11198 196.47427 333.66631 199.69531 339.21484 C225.49742 383.69336 225.49742 383.69336 221.00781 406.90234 C220.08985 409.84058 219.00778 412.54335 217.69922 415.32812 C217.28672 416.25754 216.87422 417.18695 216.44922 418.14453 C209.85565 431.61265 199.38393 438.77806 185.69922 444.32812 C180.38363 445.85486 175.65301 446.5793 170.12938 446.58539 C168.64451 446.59184 167.15964 446.59829 165.62977 446.60494 C163.20339 446.60029 163.20339 446.60029 160.72798 446.59555 C158.98142 446.59929 157.23487 446.60389 155.48832 446.60928 C150.6972 446.6215 145.90616 446.62125 141.11503 446.61889 C135.94445 446.61848 130.77389 446.62953 125.60332 446.63901 C115.47601 446.65561 105.34873 446.66112 95.22141 446.66223 C86.98802 446.66318 78.75463 446.66729 70.52123 446.67363 C47.17123 446.69125 23.82125 446.70047 0.47125 446.69897 C-0.7873 446.69889 -2.04584 446.69881 -3.34253 446.69873 C-4.60262 446.69865 -5.8627 446.69857 -7.16097 446.69848 C-27.57947 446.69767 -47.9979 446.71681 -68.41637 446.74501 C-89.38859 446.77374 -110.36078 446.78755 -131.33302 446.78582 C-143.10463 446.78516 -154.87615 446.79064 -166.64774 446.81218 C-176.67098 446.8304 -186.69411 446.83473 -196.71736 446.82116 C-201.82885 446.81463 -206.94013 446.81449 -212.0516 446.83186 C-216.73675 446.84762 -221.42151 446.8447 -226.10665 446.8273 C-228.59198 446.82279 -231.07733 446.83786 -233.56262 446.85377 C-249.41581 446.75643 -263.56886 442.78235 -275.48828 431.95312 C-287.15656 419.68934 -290.95818 404.6478 -290.60156 388.26562 C-289.46928 369.67858 -276.2549 352.37631 -267.03906 336.69922 C-263.27957 330.30346 -259.56621 323.88176 -255.86328 317.45312 C-255.24115 316.37362 -254.61901 315.29411 -253.97803 314.18188 C-252.7158 311.99148 -251.45376 309.80097 -250.19189 307.61035 C-247.06398 302.18153 -243.9322 296.75493 -240.80078 291.32812 C-239.55076 289.16147 -238.30076 286.9948 -237.05078 284.82812 C-224.55078 263.16146 -212.05078 241.49479 -199.55078 219.82812 C-198.93195 218.75546 -198.31312 217.6828 -197.67554 216.57764 C-196.42643 214.41255 -195.17724 212.24752 -193.92798 210.08252 C-190.78876 204.64197 -187.65088 199.20065 -184.51562 193.75781 C-178.49331 183.30606 -172.45409 172.86513 -166.36328 162.45312 C-160.595 152.59056 -154.91898 142.6772 -149.26196 132.75049 C-144.42447 124.27073 -139.52287 115.83069 -134.58984 107.40625 C-130.10912 99.74238 -125.69627 92.04115 -121.30078 84.32812 C-115.76637 74.61786 -110.18258 64.93901 -104.53491 55.29419 C-101.44922 50.0216 -98.38182 44.73936 -95.33984 39.44141 C-94.67606 38.28592 -94.01227 37.13044 -93.32837 35.93994 C-92.06236 33.73383 -90.79837 31.52656 -89.53687 29.31787 C-79.2333 11.36973 -69.76231 -3.82114 -49.05078 -10.67188 C-30.9186 -14.76365 -14.71575 -10.69328 0 0 Z M-44.30078 32.32812 C-48.95338 38.9335 -52.90991 45.81717 -56.80078 52.89062 C-61.52484 61.40248 -66.3158 69.86689 -71.23828 78.26562 C-76.10003 86.562 -80.93705 94.87156 -85.73828 103.20312 C-86.36082 104.28328 -86.98335 105.36343 -87.62476 106.47632 C-88.88655 108.66609 -90.14819 110.85595 -91.40967 113.0459 C-94.53758 118.47472 -97.66937 123.90132 -100.80078 129.32812 C-102.0508 131.49478 -103.3008 133.66145 -104.55078 135.82812 C-117.05078 157.49479 -129.55078 179.16146 -142.05078 200.82812 C-142.66961 201.90079 -143.28844 202.97345 -143.92603 204.07861 C-145.17514 206.2437 -146.42432 208.40873 -147.67358 210.57373 C-150.8128 216.01428 -153.95069 221.4556 -157.08594 226.89844 C-163.10825 237.35019 -169.14747 247.79112 -175.23828 258.20312 C-180.31355 266.88078 -185.32281 275.59431 -190.30078 284.32812 C-195.84144 294.04918 -201.43449 303.737 -207.08423 313.39502 C-213.22652 323.89858 -219.30104 334.44092 -225.37451 344.98438 C-228.68155 350.72495 -231.99102 356.46412 -235.30078 362.20312 C-236.19881 363.76136 -236.19881 363.76136 -237.11499 365.35107 C-237.98039 366.85178 -237.98039 366.85178 -238.86328 368.38281 C-239.42402 369.35573 -239.98477 370.32865 -240.5625 371.33105 C-241.78606 373.44066 -243.01867 375.54502 -244.25781 377.64551 C-244.89074 378.71897 -245.52367 379.79244 -246.17578 380.89844 C-247.03816 382.35274 -247.03816 382.35274 -247.91797 383.83643 C-250.63851 388.73859 -250.81321 392.76463 -250.30078 398.32812 C-246.9627 403.0627 -246.9627 403.0627 -242.30078 406.32812 C-240.06145 406.42909 -237.81901 406.46282 -235.57741 406.46793 C-234.12865 406.47362 -232.6799 406.47932 -231.18724 406.48518 C-229.5792 406.48636 -227.97117 406.48754 -226.31441 406.48875 C-224.60175 406.49348 -222.8891 406.49863 -221.17644 406.50417 C-216.45143 406.51811 -211.72641 406.52567 -207.00138 406.53214 C-202.95325 406.53851 -198.90513 406.54858 -194.857 406.55871 C-181.51748 406.59207 -168.17794 406.61356 -154.83839 406.63191 C-151.36633 406.6367 -147.89426 406.64168 -144.4222 406.64671 C-122.87488 406.67768 -101.32755 406.70437 -79.78021 406.72113 C-74.78682 406.72508 -69.79344 406.72908 -64.80005 406.73315 C-63.55892 406.73416 -62.31779 406.73517 -61.03905 406.73621 C-40.92648 406.75322 -20.81404 406.79434 -0.70153 406.84518 C19.93372 406.89691 40.56891 406.92607 61.20423 406.93333 C72.79582 406.93799 84.38721 406.9528 95.97873 406.99307 C105.84934 407.02732 115.71971 407.04133 125.59037 407.02865 C130.62828 407.02281 135.66569 407.02677 140.70353 407.05682 C145.31473 407.08409 149.92507 407.08374 154.5363 407.06131 C156.99656 407.05654 159.45683 407.0814 161.91696 407.10727 C170.6612 407.26076 170.6612 407.26076 178.17555 403.40761 C181.43441 399.43102 182.16736 397.20211 182.10938 392 C180.71901 382.94278 173.8814 373.99506 169.26172 366.20312 C168.02154 364.0941 166.78197 361.98471 165.54297 359.875 C164.90875 358.7967 164.27453 357.7184 163.62109 356.60742 C160.47438 351.23818 157.36763 345.84604 154.26172 340.45312 C153.63983 339.37402 153.01793 338.29491 152.3772 337.18311 C151.11472 334.9923 149.85243 332.80138 148.59033 330.61035 C145.46242 325.18153 142.33063 319.75493 139.19922 314.32812 C137.9492 312.16147 136.6992 309.9948 135.44922 307.82812 C134.83047 306.75563 134.21172 305.68313 133.57422 304.57812 C112.94922 268.82813 112.94922 268.82813 111.07397 265.57764 C109.82486 263.41255 108.57568 261.24752 107.32642 259.08252 C104.1872 253.64197 101.04931 248.20065 97.91406 242.75781 C91.89175 232.30606 85.85253 221.86513 79.76172 211.45312 C73.99426 201.59197 68.31945 191.67981 62.6626 181.75488 C57.79719 173.2272 52.87316 164.7357 47.91577 156.26123 C41.76155 145.73728 35.67552 135.17432 29.59033 124.61035 C26.46242 119.18153 23.33063 113.75493 20.19922 108.32812 C18.9492 106.16147 17.6992 103.9948 16.44922 101.82812 C15.83047 100.75563 15.21172 99.68313 14.57422 98.57812 C8.94922 88.82813 8.94922 88.82813 7.07202 85.57422 C5.82946 83.42051 4.58678 81.26686 3.34399 79.11328 C0.10426 73.49893 -3.13318 67.88328 -6.36719 62.26562 C-7.03621 61.10418 -7.70523 59.94273 -8.39453 58.74609 C-9.66479 56.54078 -10.93437 54.33508 -12.20312 52.12891 C-13.89568 49.19138 -15.59569 46.25839 -17.30078 43.32812 C-18.12667 41.90319 -18.12667 41.90319 -18.96924 40.44946 C-19.49501 39.55477 -20.02079 38.66008 -20.5625 37.73828 C-21.25606 36.55311 -21.25606 36.55311 -21.96362 35.34399 C-24.15132 32.04587 -26.80832 30.07435 -30.30078 28.32812 C-36.39023 27.82067 -39.69686 28.22463 -44.30078 32.32812 Z " fill="#000000" transform="translate(290.30078125,38.671875)"/></svg>