<?xml version="1.0" encoding="UTF-8"?>
<!-- Generator: visioncortex VTracer 0.6.4 -->
<svg version="1.1" xmlns="http://www.w3.org/2000/svg" width="512" height="512">
<path d="M0 0 C13.1318652 10.6143574 20.3717447 28.3589226 28.5702057 42.8201904 C32.12634 49.0893003 35.7204669 55.3362741 39.3242188 61.578125 C39.9419214 62.6485303 40.559624 63.7189355 41.1960449 64.8217773 C45.3209031 71.961851 49.4737842 79.0852028 53.6367188 86.203125 C59.0587089 95.4738217 64.4024583 104.7874909 69.7194519 114.1185913 C74.334059 122.2152034 78.9900676 130.286013 83.6992188 138.328125 C88.755528 146.9631006 93.74529 155.6341882 98.6992188 164.328125 C104.2390781 174.0493701 109.8329681 183.7370737 115.482666 193.3950195 C121.6368862 203.9189712 127.7229187 214.4819264 133.8081055 225.0458984 C136.9360202 230.4747244 140.0678032 235.9013178 143.1992188 241.328125 C144.4492375 243.4947808 145.6992375 245.6614475 146.9492188 247.828125 C147.5679687 248.900625 148.1867188 249.973125 148.8242188 251.078125 C160.6992187 271.6614583 172.5742188 292.2447917 184.4492188 312.828125 C185.0685327 313.9015112 185.6878467 314.9748975 186.3259277 316.0808105 C187.5705508 318.238341 188.8148564 320.3960546 190.0588379 322.5539551 C193.2634671 328.1119772 196.4742158 333.6663498 199.6953125 339.2148438 C225.4974185 383.6933636 225.4974185 383.6933636 221.0078125 406.9023438 C220.0898526 409.8405835 219.0077752 412.5433533 217.6992188 415.328125 C217.2867187 416.2575391 216.8742188 417.1869531 216.4492188 418.1445312 C210.0226085 431.271613 199.2393182 439.4282959 185.6992188 444.328125 C180.3508941 445.8369552 175.7257805 446.5792242 170.129384 446.5853939 C169.4081776 446.5889 168.6869712 446.5924061 167.94391 446.5960184 C165.5385223 446.6052876 163.1333791 446.6004207 160.7279816 446.5955505 C158.9814248 446.5992891 157.2348697 446.6038914 155.4883172 446.6092812 C150.6972034 446.6215017 145.9061595 446.6212518 141.1150337 446.6188924 C135.9444507 446.618484 130.7738899 446.6295257 125.6033173 446.6390076 C115.4760121 446.6556136 105.3487302 446.6611169 95.2214125 446.6622323 C86.9880152 446.663183 78.7546256 446.6672944 70.5212307 446.6736336 C47.1712336 446.6912452 23.8212548 446.7004726 0.471251 446.6989726 C-0.7872965 446.6988927 -2.045844 446.6988128 -3.3425293 446.6987305 C-4.6026159 446.6986487 -5.8627025 446.6985669 -7.1609736 446.6984827 C-27.5794714 446.6976699 -47.9978955 446.716806 -68.416372 446.7450072 C-89.3885934 446.7737443 -110.3607789 446.787547 -131.3330205 446.7858196 C-143.1046258 446.785156 -154.8761538 446.7906366 -166.6477413 446.8121758 C-176.670982 446.8303984 -186.6941103 446.8347259 -196.7173604 446.8211569 C-201.8288528 446.8146327 -206.9401296 446.8144904 -212.0516014 446.8318634 C-216.7367482 446.8476232 -221.4215091 446.8447007 -226.1066466 446.8272951 C-227.7957276 446.8242317 -229.4848376 446.8278329 -231.1738844 446.8390153 C-247.831218 446.9419349 -262.8426342 443.442158 -275.4882812 431.953125 C-287.0655236 419.7850186 -290.9573984 404.6117442 -290.6015625 388.265625 C-289.7596363 369.8610492 -276.0921144 352.0993977 -267.0390625 336.6992188 C-263.2795716 330.3034575 -259.5662134 323.8817594 -255.8632812 317.453125 C-255.2411475 316.3736157 -254.6190137 315.2941064 -253.9780273 314.1818848 C-252.7158029 311.9914775 -251.4537589 309.8009663 -250.1918945 307.6103516 C-247.0639798 302.1815256 -243.9321968 296.7549322 -240.8007812 291.328125 C-239.5507625 289.1614692 -238.3007625 286.9948025 -237.0507812 284.828125 C-224.5507813 263.1614583 -212.0507812 241.4947917 -199.5507812 219.828125 C-198.9319507 218.7554639 -198.3131201 217.6828027 -197.6755371 216.5776367 C-196.4264261 214.4125543 -195.17724 212.2475152 -193.9279785 210.0825195 C-190.7887582 204.6419679 -187.6508756 199.2006528 -184.515625 193.7578125 C-178.493308 183.306063 -172.4540879 172.8651295 -166.3632812 162.453125 C-160.9411943 153.1824857 -155.5975411 143.868758 -150.2805481 134.5376587 C-145.1069934 125.4603386 -139.8693597 116.4224097 -134.5898438 107.40625 C-130.1091186 99.7423853 -125.695839 92.0412667 -121.3007812 84.328125 C-115.7670918 74.6177067 -110.1825334 64.9389375 -104.5349121 55.2941895 C-101.4492463 50.0216511 -98.3809744 44.7397596 -95.3398438 39.4414062 C-95.0070491 38.8621338 -94.6742545 38.2828613 -94.3313751 37.6860352 C-92.7300865 34.8984147 -91.1312805 32.1094298 -89.5368652 29.3178711 C-79.2076613 11.3250643 -69.5661894 -3.8860092 -49.0507812 -10.671875 C-31.1609267 -14.7089661 -14.691996 -10.6760175 0 0 Z M-44.3007812 32.328125 C-49.1364414 38.7502969 -52.9354232 45.8635554 -56.8007812 52.890625 C-61.5248411 61.4024842 -66.3157976 69.8668861 -71.2382812 78.265625 C-76.100028 86.561998 -80.9370489 94.8715564 -85.7382812 103.203125 C-86.3608179 104.2832788 -86.9833545 105.3634326 -87.6247559 106.4763184 C-88.8865495 108.6660883 -90.1481866 110.8559485 -91.409668 113.0458984 C-94.5375827 118.4747244 -97.6693657 123.9013178 -100.8007812 129.328125 C-102.0508 131.4947808 -103.3008 133.6614475 -104.5507812 135.828125 C-117.0507812 157.4947917 -129.5507812 179.1614583 -142.0507812 200.828125 C-142.6696118 201.9007861 -143.2884424 202.9734473 -143.9260254 204.0786133 C-145.1751364 206.2436957 -146.4243225 208.4087348 -147.673584 210.5737305 C-150.8128043 216.0142821 -153.9506869 221.4555972 -157.0859375 226.8984375 C-163.1082545 237.350187 -169.1474746 247.7911205 -175.2382812 258.203125 C-180.3135325 266.8807474 -185.3233689 275.5941807 -190.3007812 284.328125 C-195.8407985 294.0492812 -201.4345293 303.7370716 -207.0842285 313.3950195 C-213.2265238 323.8985793 -219.3010399 334.4409157 -225.3745117 344.984375 C-228.0311214 349.5958993 -230.6890768 354.2066464 -233.3479004 358.8168945 C-234.6039102 360.9947738 -235.8596306 363.1728201 -237.1149902 365.3510742 C-237.9803943 366.8517847 -237.9803943 366.8517847 -238.8632812 368.3828125 C-239.4240234 369.3557324 -239.9847656 370.3286523 -240.5625 371.3310547 C-241.7860563 373.4406582 -243.0186684 375.5450225 -244.2578125 377.6455078 C-244.8907422 378.7189746 -245.5236719 379.7924414 -246.1757812 380.8984375 C-247.0381641 382.3527417 -247.0381641 382.3527417 -247.9179688 383.8364258 C-250.5275075 388.5385714 -251.2540985 393.0455232 -250.3007812 398.328125 C-248.2675129 401.7064785 -245.8538515 404.5515899 -242.3007812 406.328125 C-240.0614489 406.4290905 -237.8190141 406.4628186 -235.5774126 406.4679327 C-234.5235517 406.4723598 -234.5235517 406.4723598 -233.4484006 406.4768764 C-231.0703916 406.4856079 -228.6924311 406.4871517 -226.3144073 406.4887543 C-224.601752 406.4934825 -222.8890977 406.498633 -221.1764447 406.5041719 C-216.4514256 406.518113 -211.7264141 406.5256715 -207.0013796 406.5321449 C-202.9532475 406.5385058 -198.9051282 406.5485773 -194.857004 406.5587056 C-181.517477 406.592066 -168.1779422 406.6135574 -154.838387 406.6319054 C-151.3663254 406.6366984 -147.8942641 406.6416819 -144.4222028 406.6467106 C-122.874878 406.6776792 -101.3275504 406.704373 -79.7802095 406.7211294 C-74.7868226 406.7250791 -69.7934357 406.7290821 -64.8000488 406.7331543 C-63.5589203 406.7341627 -62.3177917 406.735171 -61.0390532 406.7362099 C-40.9264845 406.7532225 -20.8140387 406.7943367 -0.7015301 406.8451773 C19.9337231 406.8969114 40.5689131 406.9260661 61.2042306 406.9333263 C72.7958205 406.9379938 84.3872091 406.9528002 95.978735 406.9930706 C105.84934 407.02732 115.7197075 407.0413305 125.5903687 407.0286465 C130.6282803 407.0228077 135.6656892 407.0267691 140.7035255 407.0568161 C145.3147303 407.0840946 149.925073 407.0837437 154.5362962 407.0613056 C156.2052725 407.058072 157.8743055 407.0650134 159.5431869 407.0831029 C169.4852063 407.5078949 169.4852063 407.5078949 178.1755495 403.407609 C181.4344065 399.4310189 182.1673603 397.2021108 182.109375 392 C180.7190117 382.9427761 173.8814025 373.995058 169.2617188 366.203125 C168.0215364 364.0941021 166.7819744 361.9847144 165.5429688 359.875 C164.90875 358.7966992 164.2745312 357.7183984 163.6210938 356.6074219 C160.4743777 351.2381777 157.3676326 345.8460431 154.2617188 340.453125 C153.6398267 339.3740186 153.0179346 338.2949121 152.3771973 337.1831055 C151.1147214 334.9922955 149.8524332 332.8013774 148.590332 330.6103516 C145.4624173 325.1815256 142.3306343 319.7549322 139.1992188 314.328125 C137.9492 312.1614692 136.6992 309.9948025 135.4492188 307.828125 C134.8304688 306.755625 134.2117187 305.683125 133.5742188 304.578125 C112.9492188 268.828125 112.9492188 268.828125 111.0739746 265.5776367 C109.8248636 263.4125543 108.5756775 261.2475152 107.326416 259.0825195 C104.1871957 253.6419679 101.0493131 248.2006528 97.9140625 242.7578125 C91.8917455 232.306063 85.8525254 221.8651295 79.7617188 211.453125 C74.340007 202.1831272 68.9971696 192.8698075 63.6799927 183.5396729 C58.4787675 174.4152966 53.21894 165.3267973 47.9157715 156.2612305 C41.7615513 145.7372788 35.6755188 135.1743236 29.590332 124.6103516 C26.4624173 119.1815256 23.3306343 113.7549322 20.1992188 108.328125 C18.9492 106.1614692 17.6992 103.9948025 16.4492188 101.828125 C15.8304688 100.755625 15.2117187 99.683125 14.5742188 98.578125 C8.9492188 88.828125 8.9492188 88.828125 7.0720215 85.5742188 C5.8294586 83.4205078 4.5867839 81.2668613 3.3439941 79.1132812 C0.4460725 74.0912824 -2.4508147 69.0686969 -5.3435364 64.0437012 C-6.3602532 62.2776698 -7.3773378 60.5118507 -8.3945312 58.7460938 C-9.66479 56.5407835 -10.9343714 54.3350828 -12.203125 52.1289062 C-13.8956804 49.1913823 -15.5956899 46.2583879 -17.3007812 43.328125 C-18.1266675 41.9031873 -18.1266675 41.9031873 -18.9692383 40.4494629 C-19.4950146 39.5547729 -20.020791 38.660083 -20.5625 37.7382812 C-21.2560559 36.5531091 -21.2560559 36.5531091 -21.963623 35.3439941 C-24.151324 32.0458662 -26.8083221 30.0743546 -30.3007812 28.328125 C-36.3717053 27.8222147 -39.5733435 28.1145392 -44.3007812 32.328125 Z " fill="#000000" transform="translate(290.30078125,38.671875)"/>
</svg>
